<?xml version="1.0" encoding="utf-8"?>
<!-- Generator: Adobe Illustrator 20.1.0, SVG Export Plug-In . SVG Version: 6.00 Build 0)  -->
<svg version="1.1" id="Layer_1" xmlns="http://www.w3.org/2000/svg" xmlns:xlink="http://www.w3.org/1999/xlink" x="0px" y="0px"
	 viewBox="0 0 316 60" style="enable-background:new 0 0 316 60;" xml:space="preserve">
<style type="text/css">
	.st0{fill:#00718D;}
	.st1{fill:#4B4B4B;}
</style>
<g>
	<g>
		<g>
			<path class="st0" d="M19.5,30.9h-4.6L11,17l0.1,4.4v9.6H6.6V9.1h6.7l3.9,14l3.9-14h6.7v21.8h-4.5v-9.6l0.1-4.4L19.5,30.9z"/>
			<path class="st0" d="M34.9,14h-4.6V9.3h4.6V14z M30.3,16.1h4.4v14.8h-4.4V16.1z"/>
			<path class="st0" d="M43.4,27.5c1.4,0,2.1-0.9,2.1-2h4.2v0.6c0,3.1-2.1,5.2-6.4,5.2c-4.7,0-6.7-3-6.7-7.3v-1c0-4.3,2-7.3,6.7-7.3
				c4.3,0,6.4,2.2,6.4,5.5v0.6h-4.2c0-1.5-0.7-2.3-2.1-2.3c-1.7,0-2.4,1.3-2.4,3.5v1C41,26.2,41.6,27.5,43.4,27.5z"/>
			<path class="st0" d="M55.8,17.5c1-1.1,2.4-1.8,4.4-1.8c3.4,0,4.6,2.5,4.6,5.2v10.1h-4.4v-9.3c0-1.1-0.4-2.1-2-2.1
				c-1.4,0-2.3,0.9-2.6,1.4v10h-4.4V8.5h4.4V17.5z"/>
			<path class="st0" d="M76.2,29.4c-1,1.1-2.6,1.9-4.6,1.9c-3.3,0-4.5-2.1-4.5-4.5v-0.3c0-3.2,2.2-4.3,5.3-4.8l3.4-0.5
				c0-1.5-0.5-2.2-2-2.2c-1.6,0-2,0.9-2,1.9h-4.2v-0.3c0-2.6,1.4-5,6.3-5c4.8,0,6.3,2.1,6.3,5.7v5.3l0.3,4.2h-4L76.2,29.4z
				 M75.7,26.6v-2.7l-2.5,0.4c-1.4,0.2-1.8,0.9-1.8,1.8v0.2c0,0.8,0.5,1.5,1.8,1.5C74.4,27.7,75.2,27.1,75.7,26.6z"/>
			<path class="st0" d="M86.2,25.1c0.2,2.1,1.1,2.8,2.8,2.8c1.5,0,2.5-0.9,2.5-1.8h4.2v0.1c0,2.8-2.4,5-6.7,5
				c-4.9,0-7.2-3.1-7.2-7.4v-0.8c0-4.3,2.4-7.4,7-7.4c4.7,0,6.9,3.1,6.9,7.4v2H86.2z M86.2,21.9h5c-0.1-1.9-0.9-2.8-2.5-2.8
				C87.2,19.1,86.4,20,86.2,21.9z"/>
			<path class="st0" d="M97.5,8.5h4.4v22.4h-4.4V8.5z"/>
			<path class="st0" d="M118.3,27.4h0.3c2.2,0,3-1.5,3-3.9h4.5v0.3c0,5.4-2.6,7.6-7.8,7.6c-5.7,0-8.2-3.2-8.2-10.7v-1.1
				c0-7.6,2.5-10.7,8.2-10.7c5.2,0,7.8,2.2,7.8,7.6v1h-4.5c0-3-0.6-4.7-3-4.7h-0.3c-2.9,0-3.6,2.4-3.6,6.8v1.1
				C114.7,24.9,115.4,27.4,118.3,27.4z"/>
			<path class="st0" d="M132.6,17.5c1-1.1,2.4-1.8,4.4-1.8c3.4,0,4.6,2.5,4.6,5.2v10.1h-4.4v-9.3c0-1.1-0.4-2.1-2-2.1
				c-1.4,0-2.3,0.9-2.6,1.4v10h-4.4V8.5h4.4V17.5z"/>
			<path class="st0" d="M152.2,15.8V20h-0.8c-1.8,0-2.8,0.7-3.2,1.3v9.6h-4.4V20.3l-0.3-4.2h3.9l0.3,1.7c0.9-1.2,2.2-2.1,3.9-2.1
				C151.9,15.7,152.1,15.7,152.2,15.8z"/>
			<path class="st0" d="M158.6,14H154V9.3h4.6V14z M154.1,16.1h4.4v14.8h-4.4V16.1z"/>
			<path class="st0" d="M168.8,26.5c0-0.9-0.5-1.3-2.2-1.5c-4.2-0.3-6-1.4-6-4.2v-0.3c0-3.4,2.7-4.8,6.2-4.8c4.4,0,6.2,1.9,6.2,5.1
				V21h-4.3c0-1.2-0.6-1.9-1.9-1.9c-1.2,0-1.9,0.5-1.9,1.3c0,0.9,0.4,1.3,2.1,1.4c3.7,0.3,6.2,1.1,6.2,4.2v0.3c0,3.1-2.2,5-6.4,5
				c-4.3,0-6.4-2-6.4-4.9v-0.1h4.4c0,1,0.5,1.7,2,1.7C168.3,27.9,168.8,27.3,168.8,26.5z"/>
			<path class="st0" d="M185.3,16.1V20h-3.8v5.3c0,1.8,0.8,2.2,2.2,2.2c0.5,0,1.2-0.1,1.3-0.2v3.6c-0.3,0.1-1,0.4-2.4,0.4
				c-3.3,0-5.6-1.4-5.6-5.5V20h-2.3v-3.9h2.3v-4.2h4.4v4.2H185.3z"/>
			<path class="st0" d="M186.6,24v-1c0-4.3,2.2-7.3,6.9-7.3c4.8,0,6.9,3,6.9,7.3v1c0,4.3-2.2,7.3-6.9,7.3
				C188.8,31.3,186.6,28.3,186.6,24z M196,24v-1c0-2.2-0.8-3.5-2.5-3.5c-1.7,0-2.5,1.3-2.5,3.5v1c0,2.2,0.8,3.5,2.5,3.5
				C195.3,27.5,196,26.2,196,24z"/>
			<path class="st0" d="M206.6,29.7v6.9h-4.4V20.3l-0.3-4.2h3.9l0.3,1.8c0.8-1.3,2.2-2.2,4.2-2.2c4.1,0,5.5,3,5.5,7.3v1
				c0,4.3-1.5,7.3-5.5,7.3C208.7,31.3,207.5,30.7,206.6,29.7z M206.6,20.9v5.2c0.4,0.5,1.2,1.4,2.5,1.4c1.7,0,2.4-1.3,2.4-3.5v-1
				c0-2.2-0.7-3.5-2.4-3.5C207.9,19.5,207,20.4,206.6,20.9z"/>
			<path class="st0" d="M222.2,17.5c1-1.1,2.4-1.8,4.4-1.8c3.4,0,4.6,2.5,4.6,5.2v10.1h-4.4v-9.3c0-1.1-0.4-2.1-2-2.1
				c-1.4,0-2.3,0.9-2.6,1.4v10h-4.4V8.5h4.4V17.5z"/>
			<path class="st0" d="M237.2,25.1c0.2,2.1,1.1,2.8,2.8,2.8c1.5,0,2.5-0.9,2.5-1.8h4.2v0.1c0,2.8-2.4,5-6.7,5
				c-4.9,0-7.2-3.1-7.2-7.4v-0.8c0-4.3,2.4-7.4,7-7.4c4.7,0,6.9,3.1,6.9,7.4v2H237.2z M237.2,21.9h5c-0.1-1.9-0.9-2.8-2.5-2.8
				C238.1,19.1,237.4,20,237.2,21.9z"/>
			<path class="st0" d="M257.4,15.8V20h-0.8c-1.8,0-2.8,0.7-3.2,1.3v9.6H249V20.3l-0.3-4.2h3.9l0.3,1.7c0.9-1.2,2.2-2.1,3.9-2.1
				C257.1,15.7,257.3,15.7,257.4,15.8z"/>
			<path class="st0" d="M259.1,30.3c0,2-1,3-2.9,3V32c0.8,0,1.3-0.4,1.5-1.1h-1.4v-2.8h2.8V30.3z"/>
			<path class="st0" d="M271.8,30.9h-5V14.6h5c4.9,0,6.9,2.1,6.9,7.8v0.8C278.7,28.8,276.7,30.9,271.8,30.9z M271.6,28
				c2.8,0,3.6-1.6,3.6-4.8v-0.8c0-3.3-0.8-4.8-3.6-4.8h-1.4V28H271.6z"/>
			<path class="st0" d="M290,30.9h-3.5l-2.9-10.5l0.1,3.3v7.2h-3.4V14.6h5l2.9,10.5l2.9-10.5h5v16.4h-3.4v-7.2l0.1-3.3L290,30.9z"/>
			<path class="st0" d="M303.5,30.9h-5V14.6h5c4.9,0,6.9,2.1,6.9,7.8v0.8C310.5,28.8,308.4,30.9,303.5,30.9z M303.4,28
				c2.8,0,3.6-1.6,3.6-4.8v-0.8c0-3.3-0.8-4.8-3.6-4.8h-1.4V28H303.4z"/>
		</g>
	</g>
</g>
<g>
	<g>
		<path class="st1" d="M14.6,48c0,0.1,0,0.2,0,0.3c0,0.1,0,0.1,0,0.2c0,0.1,0,0.1-0.1,0.1s-0.1,0.1-0.1,0.2
			c-0.1,0.1-0.2,0.2-0.4,0.3c-0.2,0.1-0.4,0.2-0.7,0.4c-0.3,0.1-0.6,0.2-1,0.3s-0.8,0.1-1.2,0.1c-0.8,0-1.5-0.1-2.1-0.4
			c-0.6-0.3-1.2-0.6-1.6-1.1s-0.8-1.1-1-1.9c-0.2-0.7-0.4-1.6-0.4-2.6c0-1,0.1-1.9,0.4-2.6c0.3-0.8,0.6-1.4,1.1-2
			c0.5-0.5,1-0.9,1.7-1.2c0.6-0.3,1.4-0.4,2.1-0.4c0.3,0,0.7,0,1,0.1c0.3,0.1,0.6,0.1,0.9,0.2c0.3,0.1,0.5,0.2,0.7,0.3
			c0.2,0.1,0.4,0.2,0.4,0.3s0.1,0.1,0.2,0.2c0,0,0,0.1,0.1,0.2c0,0.1,0,0.1,0,0.2s0,0.2,0,0.3c0,0.1,0,0.2,0,0.3
			c0,0.1,0,0.2-0.1,0.2c0,0.1-0.1,0.1-0.1,0.1c0,0-0.1,0-0.1,0c-0.1,0-0.2-0.1-0.4-0.2c-0.2-0.1-0.4-0.3-0.6-0.4s-0.5-0.3-0.9-0.4
			C12.1,39,11.6,39,11.2,39c-0.5,0-1,0.1-1.5,0.3c-0.4,0.2-0.8,0.5-1.1,0.9c-0.3,0.4-0.5,0.9-0.7,1.5c-0.2,0.6-0.3,1.3-0.3,2
			c0,0.8,0.1,1.4,0.2,2c0.2,0.6,0.4,1.1,0.7,1.5c0.3,0.4,0.7,0.7,1.1,0.9c0.4,0.2,0.9,0.3,1.5,0.3c0.5,0,0.9-0.1,1.2-0.2
			c0.4-0.1,0.7-0.2,0.9-0.4c0.3-0.1,0.5-0.3,0.6-0.4c0.2-0.1,0.3-0.2,0.4-0.2c0,0,0.1,0,0.1,0s0.1,0.1,0.1,0.1c0,0.1,0,0.1,0,0.2
			C14.6,47.7,14.6,47.8,14.6,48z"/>
		<path class="st1" d="M24.2,45.2c0,0.7-0.1,1.3-0.3,1.9c-0.2,0.6-0.4,1.1-0.8,1.5c-0.4,0.4-0.8,0.7-1.3,1s-1.1,0.3-1.8,0.3
			c-0.7,0-1.3-0.1-1.8-0.3c-0.5-0.2-0.9-0.5-1.3-0.9c-0.3-0.4-0.6-0.9-0.8-1.4c-0.2-0.6-0.2-1.2-0.2-1.9c0-0.7,0.1-1.3,0.3-1.9
			c0.2-0.6,0.4-1.1,0.8-1.5c0.4-0.4,0.8-0.7,1.3-1s1.1-0.3,1.9-0.3c0.7,0,1.3,0.1,1.8,0.3c0.5,0.2,0.9,0.5,1.3,0.9
			c0.3,0.4,0.6,0.9,0.8,1.4C24.2,43.9,24.2,44.5,24.2,45.2z M22.7,45.3c0-0.4,0-0.9-0.1-1.3c-0.1-0.4-0.2-0.8-0.4-1.1
			c-0.2-0.3-0.5-0.5-0.8-0.7C21,42.1,20.6,42,20.1,42c-0.5,0-0.8,0.1-1.2,0.2c-0.3,0.2-0.6,0.4-0.8,0.7s-0.4,0.6-0.5,1
			c-0.1,0.4-0.2,0.8-0.2,1.3c0,0.5,0,0.9,0.1,1.3c0.1,0.4,0.2,0.7,0.4,1s0.5,0.5,0.8,0.7s0.7,0.3,1.2,0.3c0.4,0,0.8-0.1,1.2-0.2
			c0.3-0.2,0.6-0.4,0.8-0.7c0.2-0.3,0.4-0.6,0.5-1S22.7,45.8,22.7,45.3z"/>
		<path class="st1" d="M31.7,47.2c0,0.4-0.1,0.8-0.2,1.1s-0.4,0.6-0.7,0.8c-0.3,0.2-0.6,0.4-1,0.5c-0.4,0.1-0.8,0.2-1.3,0.2
			c-0.3,0-0.6,0-0.8-0.1c-0.3,0-0.5-0.1-0.7-0.2c-0.2-0.1-0.4-0.1-0.5-0.2c-0.1-0.1-0.3-0.1-0.3-0.2c-0.1-0.1-0.1-0.1-0.1-0.3
			c0-0.1,0-0.3,0-0.5c0-0.1,0-0.2,0-0.3s0-0.1,0-0.2c0,0,0-0.1,0.1-0.1s0.1,0,0.1,0c0.1,0,0.2,0,0.3,0.1s0.3,0.2,0.5,0.3
			c0.2,0.1,0.4,0.2,0.7,0.3c0.3,0.1,0.6,0.1,0.9,0.1c0.3,0,0.5,0,0.7-0.1s0.4-0.1,0.5-0.2s0.3-0.2,0.4-0.4s0.1-0.4,0.1-0.6
			c0-0.2-0.1-0.4-0.2-0.6c-0.1-0.2-0.3-0.3-0.5-0.4s-0.4-0.2-0.7-0.3c-0.2-0.1-0.5-0.2-0.8-0.3s-0.5-0.2-0.8-0.4
			c-0.2-0.1-0.5-0.3-0.7-0.5c-0.2-0.2-0.4-0.4-0.5-0.7c-0.1-0.3-0.2-0.6-0.2-0.9c0-0.3,0.1-0.6,0.2-0.9c0.1-0.3,0.3-0.6,0.6-0.8
			s0.6-0.4,0.9-0.5c0.4-0.1,0.8-0.2,1.3-0.2c0.2,0,0.4,0,0.7,0.1c0.2,0,0.4,0.1,0.6,0.1c0.2,0.1,0.3,0.1,0.5,0.2s0.2,0.1,0.3,0.2
			c0.1,0,0.1,0.1,0.1,0.1s0,0.1,0,0.1c0,0,0,0.1,0,0.2s0,0.2,0,0.2c0,0.1,0,0.2,0,0.3c0,0.1,0,0.1,0,0.2c0,0,0,0.1-0.1,0.1
			s-0.1,0-0.1,0c-0.1,0-0.1,0-0.2-0.1c-0.1-0.1-0.2-0.1-0.4-0.2S30,42.1,29.8,42c-0.2-0.1-0.5-0.1-0.8-0.1c-0.3,0-0.5,0-0.7,0.1
			c-0.2,0.1-0.4,0.1-0.5,0.2s-0.2,0.2-0.3,0.4s-0.1,0.3-0.1,0.5c0,0.2,0.1,0.4,0.2,0.6s0.3,0.3,0.5,0.4s0.4,0.2,0.7,0.3
			c0.3,0.1,0.5,0.2,0.8,0.3s0.5,0.2,0.8,0.3c0.3,0.1,0.5,0.3,0.7,0.5s0.4,0.4,0.5,0.7C31.6,46.5,31.7,46.8,31.7,47.2z"/>
		<path class="st1" d="M46.2,49.4c0,0,0,0.1,0,0.1c0,0-0.1,0.1-0.1,0.1s-0.1,0-0.2,0.1c-0.1,0-0.2,0-0.4,0c-0.2,0-0.3,0-0.4,0
			c-0.1,0-0.2,0-0.2-0.1c-0.1,0-0.1-0.1-0.1-0.1c0,0,0-0.1,0-0.1v-5c0-0.3,0-0.7-0.1-1c-0.1-0.3-0.2-0.5-0.3-0.7s-0.3-0.4-0.5-0.5
			C43.5,42.1,43.3,42,43,42c-0.4,0-0.7,0.1-1.1,0.4s-0.7,0.7-1.2,1.2v5.8c0,0,0,0.1,0,0.1c0,0-0.1,0.1-0.1,0.1c-0.1,0-0.1,0-0.2,0.1
			c-0.1,0-0.2,0-0.4,0c-0.1,0-0.3,0-0.4,0c-0.1,0-0.2,0-0.2-0.1c-0.1,0-0.1-0.1-0.1-0.1c0,0,0-0.1,0-0.1v-5c0-0.3,0-0.7-0.1-1
			c-0.1-0.3-0.2-0.5-0.3-0.7s-0.3-0.4-0.5-0.5c-0.2-0.1-0.5-0.2-0.7-0.2c-0.4,0-0.7,0.1-1.1,0.4s-0.7,0.7-1.2,1.2v5.8
			c0,0,0,0.1,0,0.1c0,0-0.1,0.1-0.1,0.1s-0.1,0-0.2,0.1c-0.1,0-0.2,0-0.4,0c-0.1,0-0.3,0-0.4,0c-0.1,0-0.2,0-0.2-0.1
			c-0.1,0-0.1-0.1-0.1-0.1c0,0,0-0.1,0-0.1v-8.3c0,0,0-0.1,0-0.1c0,0,0.1-0.1,0.1-0.1c0.1,0,0.1,0,0.2-0.1c0.1,0,0.2,0,0.3,0
			c0.1,0,0.2,0,0.3,0c0.1,0,0.2,0,0.2,0.1c0,0,0.1,0.1,0.1,0.1c0,0,0,0.1,0,0.1v1.1c0.5-0.5,0.9-0.9,1.4-1.1
			c0.4-0.2,0.9-0.4,1.3-0.4c0.3,0,0.7,0,0.9,0.1c0.3,0.1,0.5,0.2,0.7,0.3c0.2,0.1,0.4,0.3,0.5,0.5c0.1,0.2,0.3,0.4,0.4,0.7
			c0.3-0.3,0.5-0.6,0.8-0.8s0.5-0.4,0.7-0.5c0.2-0.1,0.5-0.2,0.7-0.3c0.2-0.1,0.4-0.1,0.7-0.1c0.5,0,1,0.1,1.3,0.3s0.7,0.4,0.9,0.8
			c0.2,0.3,0.4,0.7,0.5,1.1c0.1,0.4,0.1,0.9,0.1,1.3V49.4z"/>
		<path class="st1" d="M56,44.9c0,0.2-0.1,0.4-0.2,0.5c-0.1,0.1-0.3,0.2-0.4,0.2H50c0,0.5,0,0.9,0.1,1.2c0.1,0.4,0.2,0.7,0.5,1
			c0.2,0.3,0.5,0.5,0.8,0.6s0.8,0.2,1.3,0.2c0.4,0,0.7,0,1.1-0.1c0.3-0.1,0.6-0.1,0.8-0.2s0.4-0.2,0.6-0.2c0.1-0.1,0.3-0.1,0.3-0.1
			c0,0,0.1,0,0.1,0c0,0,0.1,0.1,0.1,0.1s0,0.1,0,0.2c0,0.1,0,0.2,0,0.3c0,0.1,0,0.1,0,0.2c0,0.1,0,0.1,0,0.2c0,0,0,0.1,0,0.1
			s0,0.1-0.1,0.1c0,0-0.1,0.1-0.3,0.2c-0.2,0.1-0.4,0.2-0.6,0.2c-0.3,0.1-0.6,0.1-0.9,0.2c-0.3,0.1-0.7,0.1-1.1,0.1
			c-0.7,0-1.3-0.1-1.8-0.3s-0.9-0.5-1.3-0.8c-0.4-0.4-0.6-0.8-0.8-1.4c-0.2-0.6-0.3-1.2-0.3-2c0-0.7,0.1-1.4,0.3-1.9
			c0.2-0.6,0.5-1.1,0.8-1.4s0.8-0.7,1.3-0.9c0.5-0.2,1-0.3,1.7-0.3c0.7,0,1.2,0.1,1.7,0.3s0.8,0.5,1.1,0.8s0.5,0.8,0.6,1.2
			c0.1,0.5,0.2,1,0.2,1.5V44.9z M54.5,44.5c0-0.8-0.2-1.4-0.5-1.9c-0.4-0.5-0.9-0.7-1.7-0.7c-0.4,0-0.7,0.1-1,0.2s-0.5,0.3-0.7,0.6
			s-0.3,0.5-0.4,0.8c-0.1,0.3-0.2,0.6-0.2,1H54.5z"/>
		<path class="st1" d="M65.5,40.9c0.2,0,0.3,0,0.4,0.1c0.1,0.1,0.1,0.2,0.1,0.4v8c0,0,0,0.1,0,0.1c0,0-0.1,0.1-0.1,0.1
			s-0.1,0-0.2,0.1c-0.1,0-0.2,0-0.4,0c-0.2,0-0.3,0-0.4,0c-0.1,0-0.2,0-0.2-0.1c-0.1,0-0.1-0.1-0.1-0.1c0,0,0-0.1,0-0.1v-7.3h-4.3
			v4.6c0,0.6,0.1,1,0.3,1.3c0.2,0.3,0.5,0.4,0.9,0.4c0.1,0,0.3,0,0.4,0c0.1,0,0.2-0.1,0.3-0.1c0.1,0,0.2-0.1,0.2-0.1
			c0.1,0,0.1,0,0.2,0c0,0,0.1,0,0.1,0c0,0,0,0,0.1,0.1c0,0,0,0.1,0,0.2c0,0.1,0,0.2,0,0.3c0,0.2,0,0.3,0,0.4c0,0.1-0.1,0.2-0.1,0.2
			c0,0.1-0.1,0.1-0.2,0.1s-0.2,0.1-0.3,0.1c-0.1,0-0.3,0.1-0.4,0.1c-0.1,0-0.3,0-0.4,0c-0.4,0-0.8-0.1-1.1-0.2
			c-0.3-0.1-0.6-0.3-0.8-0.5s-0.3-0.5-0.4-0.9c-0.1-0.4-0.1-0.8-0.1-1.2v-4.8h-1.2c-0.1,0-0.2,0-0.2-0.1c-0.1-0.1-0.1-0.3-0.1-0.5
			c0-0.1,0-0.2,0-0.3c0-0.1,0-0.1,0.1-0.2c0-0.1,0.1-0.1,0.1-0.1s0.1,0,0.1,0h1.2v-2c0,0,0-0.1,0-0.1c0,0,0.1-0.1,0.1-0.1
			c0.1,0,0.1,0,0.2-0.1c0.1,0,0.2,0,0.4,0c0.2,0,0.3,0,0.4,0c0.1,0,0.2,0,0.2,0.1c0.1,0,0.1,0.1,0.1,0.1c0,0,0,0.1,0,0.1v2H65.5z
			 M66.1,38.3c0,0.4-0.1,0.6-0.2,0.7s-0.4,0.2-0.7,0.2c-0.4,0-0.6-0.1-0.7-0.2s-0.2-0.4-0.2-0.7c0-0.4,0.1-0.6,0.2-0.7
			c0.1-0.1,0.4-0.2,0.7-0.2c0.4,0,0.6,0.1,0.7,0.2S66.1,38,66.1,38.3z"/>
		<path class="st1" d="M74.7,48.2c0,0.1,0,0.2,0,0.3c0,0.1,0,0.1,0,0.2c0,0.1,0,0.1-0.1,0.1s-0.1,0.1-0.1,0.2
			c-0.1,0.1-0.2,0.2-0.4,0.3c-0.2,0.1-0.4,0.2-0.6,0.3c-0.2,0.1-0.5,0.2-0.8,0.2c-0.3,0.1-0.6,0.1-0.8,0.1c-0.6,0-1.1-0.1-1.6-0.3
			c-0.5-0.2-0.8-0.5-1.2-0.9c-0.3-0.4-0.5-0.8-0.7-1.4c-0.2-0.5-0.2-1.2-0.2-1.9c0-0.8,0.1-1.5,0.3-2.1s0.5-1.1,0.8-1.4
			c0.3-0.4,0.8-0.7,1.2-0.8c0.5-0.2,1-0.3,1.5-0.3c0.3,0,0.5,0,0.8,0.1c0.2,0,0.5,0.1,0.7,0.2s0.4,0.2,0.6,0.3
			c0.2,0.1,0.3,0.2,0.4,0.3s0.1,0.1,0.2,0.2s0.1,0.1,0.1,0.2c0,0.1,0,0.1,0,0.2c0,0.1,0,0.2,0,0.3c0,0.2,0,0.4-0.1,0.5
			S74.5,43,74.4,43c-0.1,0-0.2-0.1-0.3-0.2c-0.1-0.1-0.3-0.2-0.5-0.3c-0.2-0.1-0.4-0.2-0.7-0.3S72.4,42,72,42
			c-0.7,0-1.3,0.3-1.7,0.8c-0.4,0.6-0.6,1.4-0.6,2.4c0,0.5,0.1,1,0.2,1.4s0.3,0.7,0.4,1s0.4,0.5,0.7,0.6c0.3,0.1,0.6,0.2,1,0.2
			c0.4,0,0.7-0.1,0.9-0.2c0.3-0.1,0.5-0.2,0.7-0.4c0.2-0.1,0.4-0.3,0.5-0.4s0.2-0.2,0.3-0.2c0,0,0.1,0,0.1,0s0.1,0.1,0.1,0.1
			c0,0.1,0,0.1,0,0.2S74.7,48,74.7,48.2z"/>
		<path class="st1" d="M80.6,46.5c0-0.3,0-0.7,0.1-1c0.1-0.3,0.2-0.6,0.4-0.9c0.2-0.3,0.5-0.6,0.8-0.8c0.3-0.3,0.7-0.5,1.1-0.8
			c-0.2-0.3-0.5-0.6-0.6-0.9c-0.2-0.3-0.3-0.5-0.4-0.8s-0.2-0.5-0.2-0.7c0-0.2-0.1-0.4-0.1-0.6c0-0.4,0.1-0.7,0.2-1.1
			c0.1-0.3,0.3-0.7,0.6-0.9c0.3-0.3,0.7-0.5,1.1-0.6c0.4-0.2,1-0.2,1.6-0.2c0.5,0,1,0.1,1.4,0.2c0.4,0.1,0.7,0.3,1,0.5
			c0.3,0.2,0.5,0.5,0.6,0.8c0.1,0.3,0.2,0.6,0.2,1c0,0.4-0.1,0.7-0.2,1c-0.1,0.3-0.3,0.6-0.6,0.9c-0.3,0.3-0.6,0.6-1,0.8
			c-0.4,0.3-0.9,0.6-1.5,0.9c0.2,0.3,0.4,0.5,0.7,0.8c0.2,0.3,0.5,0.5,0.8,0.8c0.3,0.3,0.5,0.5,0.8,0.8c0.3,0.3,0.6,0.5,0.8,0.8
			c0.1-0.2,0.2-0.4,0.3-0.6c0.1-0.2,0.2-0.4,0.3-0.7s0.1-0.5,0.2-0.7c0-0.2,0.1-0.5,0.1-0.7v-0.3c0-0.1,0-0.1,0-0.2
			c0,0,0.1-0.1,0.1-0.1c0,0,0.1,0,0.2-0.1c0.1,0,0.2,0,0.4,0c0.1,0,0.2,0,0.3,0c0.1,0,0.2,0,0.2,0s0.1,0.1,0.1,0.1s0,0.1,0,0.2v0.2
			c0,0.3,0,0.7-0.1,1c-0.1,0.3-0.1,0.7-0.2,1c-0.1,0.3-0.2,0.6-0.4,0.9c-0.2,0.3-0.3,0.6-0.5,0.8c0.3,0.2,0.5,0.4,0.7,0.6
			c0.2,0.1,0.4,0.3,0.5,0.4c0.1,0.1,0.3,0.2,0.4,0.2c0.1,0,0.2,0.1,0.2,0.1s0.1,0,0.2,0c0.1,0,0.1,0,0.1,0c0,0,0.1,0.1,0.1,0.1
			c0,0.1,0,0.2,0,0.3c0,0.2,0,0.3,0,0.4c0,0.1,0,0.2,0,0.2c0,0,0,0.1-0.1,0.1c0,0-0.1,0.1-0.2,0.1c-0.1,0-0.2,0-0.4,0
			c-0.1,0-0.3,0-0.4-0.1s-0.3-0.1-0.5-0.2s-0.4-0.3-0.7-0.4c-0.3-0.2-0.6-0.4-0.9-0.7c-0.3,0.2-0.5,0.4-0.8,0.6
			c-0.3,0.2-0.6,0.3-0.9,0.5s-0.7,0.2-1,0.3c-0.4,0.1-0.7,0.1-1.1,0.1c-0.4,0-0.8,0-1.1-0.1c-0.3-0.1-0.7-0.2-1-0.3
			c-0.3-0.1-0.6-0.3-0.8-0.5c-0.2-0.2-0.4-0.4-0.6-0.6c-0.2-0.2-0.3-0.5-0.4-0.8C80.7,47.2,80.6,46.9,80.6,46.5z M82.3,46.4
			c0,0.3,0.1,0.6,0.2,0.9s0.3,0.5,0.5,0.7c0.2,0.2,0.5,0.3,0.8,0.5s0.7,0.2,1.1,0.2c0.3,0,0.5,0,0.7-0.1c0.2-0.1,0.5-0.1,0.7-0.2
			s0.4-0.2,0.6-0.3c0.2-0.1,0.4-0.3,0.5-0.4c-0.3-0.3-0.6-0.6-1-0.9c-0.3-0.3-0.6-0.6-0.9-0.9c-0.3-0.3-0.6-0.6-0.9-0.9
			c-0.3-0.3-0.5-0.6-0.8-0.9c-0.3,0.2-0.6,0.4-0.8,0.6s-0.4,0.4-0.5,0.6s-0.2,0.4-0.3,0.6C82.3,45.9,82.3,46.1,82.3,46.4z
			 M83.3,39.9c0,0.2,0,0.3,0.1,0.5c0,0.2,0.1,0.4,0.2,0.5s0.2,0.4,0.4,0.6c0.1,0.2,0.3,0.5,0.5,0.7c0.4-0.3,0.8-0.5,1.1-0.7
			s0.5-0.4,0.7-0.6c0.2-0.2,0.3-0.4,0.4-0.6c0.1-0.2,0.1-0.4,0.1-0.6c0-0.2,0-0.3-0.1-0.5s-0.2-0.3-0.3-0.4
			c-0.1-0.1-0.3-0.2-0.5-0.3c-0.2-0.1-0.5-0.1-0.8-0.1c-0.3,0-0.6,0-0.8,0.1c-0.2,0.1-0.4,0.2-0.6,0.3c-0.1,0.1-0.3,0.3-0.3,0.5
			C83.4,39.6,83.3,39.7,83.3,39.9z"/>
		<path class="st1" d="M104.6,38.4c0,0.1,0,0.2,0,0.3c0,0.1,0,0.2-0.1,0.2c0,0.1-0.1,0.1-0.1,0.1c0,0-0.1,0-0.1,0h-4.4v4.1h4.1
			c0,0,0.1,0,0.1,0c0,0,0.1,0.1,0.1,0.1s0.1,0.1,0.1,0.2c0,0.1,0,0.2,0,0.3c0,0.1,0,0.2,0,0.3c0,0.1,0,0.2-0.1,0.2
			c0,0.1-0.1,0.1-0.1,0.1s-0.1,0-0.1,0h-4.1v5c0,0,0,0.1,0,0.1s-0.1,0.1-0.1,0.1c-0.1,0-0.1,0-0.2,0.1c-0.1,0-0.2,0-0.4,0
			c-0.1,0-0.3,0-0.4,0c-0.1,0-0.2,0-0.2-0.1c-0.1,0-0.1-0.1-0.1-0.1c0,0,0-0.1,0-0.1v-11c0-0.2,0.1-0.4,0.2-0.5s0.3-0.1,0.4-0.1h5.4
			c0,0,0.1,0,0.1,0c0,0,0.1,0.1,0.1,0.1s0.1,0.1,0.1,0.2C104.6,38.2,104.6,38.3,104.6,38.4z"/>
		<path class="st1" d="M112.6,49.4c0,0.1,0,0.1-0.1,0.2c0,0-0.1,0.1-0.2,0.1c-0.1,0-0.2,0-0.4,0c-0.2,0-0.3,0-0.4,0
			c-0.1,0-0.2,0-0.2-0.1c0,0-0.1-0.1-0.1-0.2v-0.8c-0.4,0.4-0.8,0.7-1.2,0.9s-0.9,0.3-1.4,0.3c-0.4,0-0.8-0.1-1.2-0.2
			c-0.4-0.1-0.7-0.3-0.9-0.5c-0.2-0.2-0.4-0.5-0.6-0.8s-0.2-0.7-0.2-1.1c0-0.5,0.1-0.9,0.3-1.2c0.2-0.3,0.5-0.6,0.8-0.9
			s0.8-0.4,1.3-0.5c0.5-0.1,1.1-0.2,1.7-0.2h1.1v-0.6c0-0.3,0-0.6-0.1-0.8c-0.1-0.2-0.2-0.5-0.3-0.6c-0.2-0.2-0.3-0.3-0.6-0.4
			s-0.5-0.1-0.9-0.1c-0.4,0-0.7,0-1,0.1c-0.3,0.1-0.6,0.2-0.8,0.3c-0.2,0.1-0.4,0.2-0.6,0.3c-0.2,0.1-0.3,0.1-0.3,0.1
			c0,0-0.1,0-0.1,0c0,0-0.1-0.1-0.1-0.1c0,0,0-0.1-0.1-0.2c0-0.1,0-0.2,0-0.3c0-0.2,0-0.3,0-0.4s0.1-0.2,0.2-0.3s0.2-0.2,0.4-0.3
			c0.2-0.1,0.4-0.2,0.7-0.3c0.3-0.1,0.6-0.2,0.9-0.2c0.3-0.1,0.6-0.1,0.9-0.1c0.6,0,1.1,0.1,1.5,0.2c0.4,0.1,0.8,0.3,1,0.6
			c0.3,0.3,0.4,0.6,0.6,1c0.1,0.4,0.2,0.8,0.2,1.4V49.4z M111.1,45.6h-1.3c-0.4,0-0.8,0-1.1,0.1c-0.3,0.1-0.6,0.2-0.8,0.3
			c-0.2,0.1-0.4,0.3-0.4,0.5c-0.1,0.2-0.1,0.4-0.1,0.7c0,0.4,0.1,0.8,0.4,1c0.3,0.3,0.7,0.4,1.1,0.4c0.4,0,0.8-0.1,1.1-0.3
			s0.7-0.5,1.1-0.9V45.6z"/>
		<path class="st1" d="M127.7,49.4c0,0,0,0.1,0,0.1c0,0-0.1,0.1-0.1,0.1s-0.1,0-0.2,0.1c-0.1,0-0.2,0-0.4,0c-0.2,0-0.3,0-0.4,0
			c-0.1,0-0.2,0-0.2-0.1c-0.1,0-0.1-0.1-0.1-0.1c0,0,0-0.1,0-0.1v-5c0-0.3,0-0.7-0.1-1c-0.1-0.3-0.2-0.5-0.3-0.7s-0.3-0.4-0.5-0.5
			c-0.2-0.1-0.5-0.2-0.7-0.2c-0.4,0-0.7,0.1-1.1,0.4s-0.7,0.7-1.2,1.2v5.8c0,0,0,0.1,0,0.1c0,0-0.1,0.1-0.1,0.1
			c-0.1,0-0.1,0-0.2,0.1c-0.1,0-0.2,0-0.4,0c-0.1,0-0.3,0-0.4,0c-0.1,0-0.2,0-0.2-0.1c-0.1,0-0.1-0.1-0.1-0.1c0,0,0-0.1,0-0.1v-5
			c0-0.3,0-0.7-0.1-1c-0.1-0.3-0.2-0.5-0.3-0.7s-0.3-0.4-0.5-0.5c-0.2-0.1-0.5-0.2-0.7-0.2c-0.4,0-0.7,0.1-1.1,0.4s-0.7,0.7-1.2,1.2
			v5.8c0,0,0,0.1,0,0.1c0,0-0.1,0.1-0.1,0.1s-0.1,0-0.2,0.1c-0.1,0-0.2,0-0.4,0c-0.1,0-0.3,0-0.4,0c-0.1,0-0.2,0-0.2-0.1
			c-0.1,0-0.1-0.1-0.1-0.1c0,0,0-0.1,0-0.1v-8.3c0,0,0-0.1,0-0.1c0,0,0.1-0.1,0.1-0.1c0.1,0,0.1,0,0.2-0.1c0.1,0,0.2,0,0.3,0
			c0.1,0,0.2,0,0.3,0c0.1,0,0.2,0,0.2,0.1c0,0,0.1,0.1,0.1,0.1c0,0,0,0.1,0,0.1v1.1c0.5-0.5,0.9-0.9,1.4-1.1
			c0.4-0.2,0.9-0.4,1.3-0.4c0.3,0,0.7,0,0.9,0.1c0.3,0.1,0.5,0.2,0.7,0.3c0.2,0.1,0.4,0.3,0.5,0.5c0.1,0.2,0.3,0.4,0.4,0.7
			c0.3-0.3,0.5-0.6,0.8-0.8s0.5-0.4,0.7-0.5c0.2-0.1,0.5-0.2,0.7-0.3c0.2-0.1,0.4-0.1,0.7-0.1c0.5,0,1,0.1,1.3,0.3s0.7,0.4,0.9,0.8
			c0.2,0.3,0.4,0.7,0.5,1.1c0.1,0.4,0.1,0.9,0.1,1.3V49.4z"/>
		<path class="st1" d="M132.2,38.3c0,0.4-0.1,0.6-0.2,0.7s-0.4,0.2-0.7,0.2c-0.4,0-0.6-0.1-0.7-0.2c-0.1-0.1-0.2-0.4-0.2-0.7
			c0-0.4,0.1-0.6,0.2-0.7c0.1-0.1,0.4-0.2,0.7-0.2c0.4,0,0.6,0.1,0.7,0.2C132.1,37.7,132.2,38,132.2,38.3z M132,49.4
			c0,0,0,0.1,0,0.1c0,0-0.1,0.1-0.1,0.1s-0.1,0-0.2,0.1c-0.1,0-0.2,0-0.4,0c-0.1,0-0.3,0-0.4,0c-0.1,0-0.2,0-0.2-0.1
			c-0.1,0-0.1-0.1-0.1-0.1c0,0,0-0.1,0-0.1v-8.3c0,0,0-0.1,0-0.1s0.1-0.1,0.1-0.1c0.1,0,0.1,0,0.2-0.1c0.1,0,0.2,0,0.4,0
			c0.2,0,0.3,0,0.4,0c0.1,0,0.2,0,0.2,0.1c0.1,0,0.1,0.1,0.1,0.1s0,0.1,0,0.1V49.4z"/>
		<path class="st1" d="M136.3,49.4c0,0,0,0.1,0,0.1c0,0-0.1,0.1-0.1,0.1s-0.1,0-0.2,0.1c-0.1,0-0.2,0-0.4,0c-0.1,0-0.3,0-0.4,0
			c-0.1,0-0.2,0-0.2-0.1c-0.1,0-0.1-0.1-0.1-0.1c0,0,0-0.1,0-0.1V37.1c0,0,0-0.1,0-0.1s0.1-0.1,0.1-0.1c0.1,0,0.1,0,0.2-0.1
			c0.1,0,0.2,0,0.4,0c0.2,0,0.3,0,0.4,0c0.1,0,0.2,0,0.2,0.1c0.1,0,0.1,0.1,0.1,0.1s0,0.1,0,0.1V49.4z"/>
		<path class="st1" d="M142.9,49.7l-1.1,3.1c0,0.1-0.1,0.2-0.3,0.2c-0.2,0.1-0.4,0.1-0.7,0.1c-0.2,0-0.3,0-0.4,0
			c-0.1,0-0.2,0-0.2-0.1s-0.1-0.1-0.1-0.1c0-0.1,0-0.1,0-0.2l1.1-2.9c-0.1,0-0.1-0.1-0.2-0.1c0-0.1-0.1-0.1-0.1-0.2l-3-7.9
			c0-0.1-0.1-0.2-0.1-0.3c0-0.1,0-0.1,0.1-0.2s0.1-0.1,0.2-0.1c0.1,0,0.3,0,0.4,0c0.2,0,0.3,0,0.4,0s0.2,0,0.2,0.1
			c0.1,0,0.1,0.1,0.1,0.1c0,0,0.1,0.1,0.1,0.2l2.4,6.7h0l2.3-6.7c0-0.1,0.1-0.2,0.1-0.2s0.1-0.1,0.2-0.1c0.1,0,0.3,0,0.5,0
			c0.2,0,0.3,0,0.4,0c0.1,0,0.2,0,0.2,0.1s0.1,0.1,0.1,0.2c0,0.1,0,0.2-0.1,0.3L142.9,49.7z"/>
		<path class="st1" d="M161.3,43.5c0,1-0.1,1.9-0.4,2.7s-0.7,1.4-1.2,1.9c-0.5,0.5-1.1,0.9-1.9,1.1c-0.7,0.3-1.6,0.4-2.6,0.4h-2.5
			c-0.1,0-0.3,0-0.4-0.1c-0.1-0.1-0.2-0.3-0.2-0.5V38.4c0-0.2,0.1-0.4,0.2-0.5c0.1-0.1,0.3-0.1,0.4-0.1h2.7c1,0,1.9,0.1,2.6,0.4
			c0.7,0.3,1.3,0.7,1.8,1.2s0.8,1.1,1.1,1.8C161.2,41.8,161.3,42.6,161.3,43.5z M159.6,43.6c0-0.6-0.1-1.2-0.2-1.8
			c-0.2-0.6-0.4-1-0.8-1.4c-0.3-0.4-0.8-0.7-1.3-1c-0.5-0.2-1.2-0.3-2-0.3h-1.6v9.3h1.6c0.8,0,1.4-0.1,1.9-0.3
			c0.5-0.2,1-0.5,1.3-0.9c0.4-0.4,0.6-0.9,0.8-1.5C159.5,45.1,159.6,44.4,159.6,43.6z"/>
		<path class="st1" d="M170.7,44.9c0,0.2-0.1,0.4-0.2,0.5c-0.1,0.1-0.3,0.2-0.4,0.2h-5.5c0,0.5,0,0.9,0.1,1.2c0.1,0.4,0.2,0.7,0.5,1
			c0.2,0.3,0.5,0.5,0.8,0.6c0.3,0.1,0.8,0.2,1.3,0.2c0.4,0,0.7,0,1.1-0.1s0.6-0.1,0.8-0.2c0.2-0.1,0.4-0.2,0.6-0.2s0.3-0.1,0.3-0.1
			c0,0,0.1,0,0.1,0s0.1,0.1,0.1,0.1s0,0.1,0,0.2c0,0.1,0,0.2,0,0.3c0,0.1,0,0.1,0,0.2c0,0.1,0,0.1,0,0.2c0,0,0,0.1,0,0.1
			s0,0.1-0.1,0.1c0,0-0.1,0.1-0.3,0.2c-0.2,0.1-0.4,0.2-0.6,0.2c-0.3,0.1-0.6,0.1-0.9,0.2c-0.3,0.1-0.7,0.1-1.1,0.1
			c-0.7,0-1.3-0.1-1.8-0.3c-0.5-0.2-0.9-0.5-1.3-0.8s-0.6-0.8-0.8-1.4c-0.2-0.6-0.3-1.2-0.3-2c0-0.7,0.1-1.4,0.3-1.9
			c0.2-0.6,0.5-1.1,0.8-1.4s0.8-0.7,1.3-0.9c0.5-0.2,1-0.3,1.7-0.3c0.7,0,1.2,0.1,1.7,0.3s0.8,0.5,1.1,0.8c0.3,0.4,0.5,0.8,0.6,1.2
			c0.1,0.5,0.2,1,0.2,1.5V44.9z M169.1,44.5c0-0.8-0.2-1.4-0.5-1.9c-0.4-0.5-0.9-0.7-1.7-0.7c-0.4,0-0.7,0.1-1,0.2
			c-0.3,0.1-0.5,0.3-0.7,0.6s-0.3,0.5-0.4,0.8c-0.1,0.3-0.2,0.6-0.2,1H169.1z"/>
		<path class="st1" d="M180.1,49.4c0,0,0,0.1,0,0.1c0,0-0.1,0.1-0.1,0.1c-0.1,0-0.1,0-0.2,0.1c-0.1,0-0.2,0-0.4,0
			c-0.2,0-0.3,0-0.4,0c-0.1,0-0.2,0-0.2-0.1c-0.1,0-0.1-0.1-0.1-0.1c0,0,0-0.1,0-0.1v-4.9c0-0.5,0-0.9-0.1-1.1
			c-0.1-0.3-0.2-0.5-0.3-0.7s-0.3-0.4-0.5-0.5c-0.2-0.1-0.5-0.2-0.8-0.2c-0.4,0-0.8,0.1-1.1,0.4c-0.4,0.3-0.8,0.7-1.2,1.2v5.8
			c0,0,0,0.1,0,0.1c0,0-0.1,0.1-0.1,0.1s-0.1,0-0.2,0.1c-0.1,0-0.2,0-0.4,0c-0.1,0-0.3,0-0.4,0c-0.1,0-0.2,0-0.2-0.1
			s-0.1-0.1-0.1-0.1c0,0,0-0.1,0-0.1v-8.3c0,0,0-0.1,0-0.1c0,0,0.1-0.1,0.1-0.1c0.1,0,0.1,0,0.2-0.1s0.2,0,0.3,0c0.1,0,0.2,0,0.3,0
			s0.2,0,0.2,0.1c0,0,0.1,0.1,0.1,0.1c0,0,0,0.1,0,0.1v1.1c0.5-0.5,0.9-0.9,1.4-1.1c0.5-0.2,0.9-0.4,1.4-0.4c0.6,0,1,0.1,1.4,0.3
			s0.7,0.4,0.9,0.8c0.2,0.3,0.4,0.7,0.5,1.1c0.1,0.4,0.2,0.9,0.2,1.5V49.4z"/>
		<path class="st1" d="M189.9,40.9c0.2,0,0.3,0,0.4,0.1c0.1,0.1,0.1,0.2,0.1,0.4v8c0,0,0,0.1,0,0.1c0,0-0.1,0.1-0.1,0.1
			s-0.1,0-0.2,0.1c-0.1,0-0.2,0-0.4,0c-0.2,0-0.3,0-0.4,0c-0.1,0-0.2,0-0.2-0.1s-0.1-0.1-0.1-0.1c0,0,0-0.1,0-0.1v-7.3h-4.3v4.6
			c0,0.6,0.1,1,0.3,1.3s0.5,0.4,0.9,0.4c0.1,0,0.3,0,0.4,0c0.1,0,0.2-0.1,0.3-0.1c0.1,0,0.2-0.1,0.2-0.1c0.1,0,0.1,0,0.2,0
			c0,0,0.1,0,0.1,0c0,0,0,0,0.1,0.1c0,0,0,0.1,0,0.2c0,0.1,0,0.2,0,0.3c0,0.2,0,0.3,0,0.4c0,0.1-0.1,0.2-0.1,0.2
			c0,0.1-0.1,0.1-0.2,0.1c-0.1,0-0.2,0.1-0.3,0.1c-0.1,0-0.3,0.1-0.4,0.1s-0.3,0-0.4,0c-0.4,0-0.8-0.1-1.1-0.2
			c-0.3-0.1-0.6-0.3-0.8-0.5c-0.2-0.2-0.3-0.5-0.4-0.9c-0.1-0.4-0.1-0.8-0.1-1.2v-4.8h-1.2c-0.1,0-0.2,0-0.2-0.1
			c-0.1-0.1-0.1-0.3-0.1-0.5c0-0.1,0-0.2,0-0.3c0-0.1,0-0.1,0.1-0.2c0-0.1,0.1-0.1,0.1-0.1s0.1,0,0.1,0h1.2v-2c0,0,0-0.1,0-0.1
			s0.1-0.1,0.1-0.1c0.1,0,0.1,0,0.2-0.1c0.1,0,0.2,0,0.4,0c0.2,0,0.3,0,0.4,0c0.1,0,0.2,0,0.2,0.1c0.1,0,0.1,0.1,0.1,0.1
			s0,0.1,0,0.1v2H189.9z M190.6,38.3c0,0.4-0.1,0.6-0.2,0.7c-0.1,0.1-0.4,0.2-0.7,0.2c-0.4,0-0.6-0.1-0.7-0.2
			c-0.1-0.1-0.2-0.4-0.2-0.7c0-0.4,0.1-0.6,0.2-0.7c0.1-0.1,0.4-0.2,0.7-0.2c0.4,0,0.6,0.1,0.7,0.2C190.5,37.7,190.6,38,190.6,38.3z
			"/>
		<path class="st1" d="M198.4,47.2c0,0.4-0.1,0.8-0.2,1.1c-0.2,0.3-0.4,0.6-0.7,0.8s-0.6,0.4-1,0.5s-0.8,0.2-1.3,0.2
			c-0.3,0-0.6,0-0.8-0.1c-0.3,0-0.5-0.1-0.7-0.2s-0.4-0.1-0.5-0.2c-0.1-0.1-0.3-0.1-0.3-0.2s-0.1-0.1-0.1-0.3c0-0.1,0-0.3,0-0.5
			c0-0.1,0-0.2,0-0.3c0-0.1,0-0.1,0-0.2c0,0,0-0.1,0.1-0.1s0.1,0,0.1,0c0.1,0,0.2,0,0.3,0.1s0.3,0.2,0.5,0.3
			c0.2,0.1,0.4,0.2,0.7,0.3c0.3,0.1,0.6,0.1,0.9,0.1c0.3,0,0.5,0,0.7-0.1s0.4-0.1,0.5-0.2s0.3-0.2,0.4-0.4s0.1-0.4,0.1-0.6
			c0-0.2-0.1-0.4-0.2-0.6c-0.1-0.2-0.3-0.3-0.5-0.4c-0.2-0.1-0.4-0.2-0.7-0.3c-0.2-0.1-0.5-0.2-0.8-0.3c-0.3-0.1-0.5-0.2-0.8-0.4
			c-0.2-0.1-0.5-0.3-0.7-0.5c-0.2-0.2-0.4-0.4-0.5-0.7c-0.1-0.3-0.2-0.6-0.2-0.9c0-0.3,0.1-0.6,0.2-0.9c0.1-0.3,0.3-0.6,0.6-0.8
			s0.6-0.4,0.9-0.5c0.4-0.1,0.8-0.2,1.3-0.2c0.2,0,0.4,0,0.7,0.1c0.2,0,0.4,0.1,0.6,0.1c0.2,0.1,0.3,0.1,0.5,0.2s0.2,0.1,0.3,0.2
			c0.1,0,0.1,0.1,0.1,0.1s0,0.1,0,0.1c0,0,0,0.1,0,0.2c0,0.1,0,0.2,0,0.2c0,0.1,0,0.2,0,0.3c0,0.1,0,0.1,0,0.2c0,0,0,0.1-0.1,0.1
			c0,0-0.1,0-0.1,0c-0.1,0-0.1,0-0.2-0.1s-0.2-0.1-0.4-0.2s-0.4-0.1-0.6-0.2c-0.2-0.1-0.5-0.1-0.8-0.1c-0.3,0-0.5,0-0.7,0.1
			c-0.2,0.1-0.4,0.1-0.5,0.2s-0.2,0.2-0.3,0.4s-0.1,0.3-0.1,0.5c0,0.2,0.1,0.4,0.2,0.6s0.3,0.3,0.5,0.4s0.4,0.2,0.7,0.3
			s0.5,0.2,0.8,0.3c0.3,0.1,0.5,0.2,0.8,0.3c0.3,0.1,0.5,0.3,0.7,0.5c0.2,0.2,0.4,0.4,0.5,0.7C198.4,46.5,198.4,46.8,198.4,47.2z"/>
		<path class="st1" d="M204.7,48.8c0,0.2,0,0.3,0,0.4c0,0.1-0.1,0.2-0.1,0.2c0,0-0.1,0.1-0.2,0.1c-0.1,0-0.2,0.1-0.3,0.1
			c-0.1,0-0.3,0.1-0.4,0.1s-0.3,0-0.4,0c-0.4,0-0.8-0.1-1.1-0.2c-0.3-0.1-0.6-0.3-0.8-0.5c-0.2-0.2-0.3-0.5-0.4-0.9
			c-0.1-0.4-0.1-0.8-0.1-1.2v-4.8h-1.2c-0.1,0-0.2,0-0.2-0.1c-0.1-0.1-0.1-0.3-0.1-0.5c0-0.1,0-0.2,0-0.3c0-0.1,0-0.1,0.1-0.2
			c0-0.1,0.1-0.1,0.1-0.1s0.1,0,0.1,0h1.2v-2c0,0,0-0.1,0-0.1s0.1-0.1,0.1-0.1c0.1,0,0.1,0,0.2-0.1c0.1,0,0.2,0,0.4,0
			c0.2,0,0.3,0,0.4,0c0.1,0,0.2,0,0.2,0.1c0.1,0,0.1,0.1,0.1,0.1s0,0.1,0,0.1v2h2.1c0,0,0.1,0,0.1,0s0.1,0.1,0.1,0.1
			c0,0.1,0,0.1,0.1,0.2c0,0.1,0,0.2,0,0.3c0,0.2,0,0.4-0.1,0.5c-0.1,0.1-0.1,0.1-0.2,0.1h-2.1v4.6c0,0.6,0.1,1,0.3,1.3
			s0.5,0.4,0.9,0.4c0.1,0,0.3,0,0.4,0c0.1,0,0.2-0.1,0.3-0.1c0.1,0,0.2-0.1,0.2-0.1c0.1,0,0.1,0,0.2,0c0,0,0.1,0,0.1,0
			c0,0,0,0,0.1,0.1c0,0,0,0.1,0,0.2C204.7,48.6,204.7,48.7,204.7,48.8z"/>
		<path class="st1" d="M211.6,41.7c0,0.1,0,0.2,0,0.3c0,0.1,0,0.2,0,0.2c0,0.1,0,0.1-0.1,0.1c0,0-0.1,0-0.1,0c0,0-0.1,0-0.2,0
			c-0.1,0-0.2-0.1-0.2-0.1c-0.1,0-0.2-0.1-0.3-0.1c-0.1,0-0.2,0-0.4,0c-0.2,0-0.3,0-0.5,0.1c-0.1,0.1-0.3,0.2-0.5,0.3
			c-0.2,0.1-0.3,0.3-0.5,0.6c-0.2,0.2-0.4,0.5-0.6,0.9v5.5c0,0,0,0.1,0,0.1c0,0-0.1,0.1-0.1,0.1s-0.1,0-0.2,0.1c-0.1,0-0.2,0-0.4,0
			c-0.1,0-0.3,0-0.4,0c-0.1,0-0.2,0-0.2-0.1s-0.1-0.1-0.1-0.1c0,0,0-0.1,0-0.1v-8.3c0,0,0-0.1,0-0.1c0,0,0.1-0.1,0.1-0.1
			c0.1,0,0.1,0,0.2-0.1s0.2,0,0.3,0c0.1,0,0.2,0,0.3,0s0.2,0,0.2,0.1c0,0,0.1,0.1,0.1,0.1c0,0,0,0.1,0,0.1v1.2
			c0.2-0.3,0.4-0.6,0.6-0.8c0.2-0.2,0.4-0.4,0.6-0.5c0.2-0.1,0.4-0.2,0.5-0.2c0.2,0,0.4-0.1,0.5-0.1c0.1,0,0.2,0,0.3,0
			c0.1,0,0.2,0,0.3,0.1c0.1,0,0.2,0.1,0.3,0.1c0.1,0,0.2,0.1,0.2,0.1c0,0,0.1,0.1,0.1,0.1s0,0.1,0,0.1c0,0,0,0.1,0,0.2
			S211.6,41.5,211.6,41.7z"/>
		<path class="st1" d="M217.2,49.7l-1.1,3.1c0,0.1-0.1,0.2-0.3,0.2c-0.2,0.1-0.4,0.1-0.7,0.1c-0.2,0-0.3,0-0.4,0
			c-0.1,0-0.2,0-0.2-0.1c-0.1,0-0.1-0.1-0.1-0.1c0-0.1,0-0.1,0-0.2l1.1-2.9c-0.1,0-0.1-0.1-0.2-0.1c0-0.1-0.1-0.1-0.1-0.2l-3-7.9
			c0-0.1-0.1-0.2-0.1-0.3c0-0.1,0-0.1,0.1-0.2c0,0,0.1-0.1,0.2-0.1c0.1,0,0.3,0,0.4,0s0.3,0,0.4,0s0.2,0,0.2,0.1s0.1,0.1,0.1,0.1
			c0,0,0.1,0.1,0.1,0.2l2.4,6.7h0l2.3-6.7c0-0.1,0.1-0.2,0.1-0.2c0.1,0,0.1-0.1,0.2-0.1c0.1,0,0.3,0,0.5,0c0.2,0,0.3,0,0.4,0
			c0.1,0,0.2,0,0.2,0.1c0.1,0,0.1,0.1,0.1,0.2c0,0.1,0,0.2-0.1,0.3L217.2,49.7z"/>
	</g>
</g>
</svg>
