<?xml version="1.0" encoding="utf-8"?>
<!-- Generator: Adobe Illustrator 20.1.0, SVG Export Plug-In . SVG Version: 6.00 Build 0)  -->
<svg version="1.1" id="Layer_1" xmlns="http://www.w3.org/2000/svg" xmlns:xlink="http://www.w3.org/1999/xlink" x="0px" y="0px"
	 viewBox="0 0 316 60" style="enable-background:new 0 0 316 60;" xml:space="preserve">
<style type="text/css">
	.st0{fill:#00718D;}
	.st1{fill:#4B4B4B;}
</style>
<g>
	<g>
		<g>
			<path class="st0" d="M19.7,30.9h-4.6L11.2,17l0.1,4.4V31H6.8V9.1h6.7l3.9,14l3.9-14H28v21.8h-4.5v-9.6l0.1-4.4L19.7,30.9z"/>
			<path class="st0" d="M35.1,14h-4.6V9.3h4.6V14z M30.5,16.1h4.4v14.8h-4.4C30.5,30.9,30.5,16.1,30.5,16.1z"/>
			<path class="st0" d="M43.6,27.5c1.4,0,2.1-0.9,2.1-2h4.2v0.6c0,3.1-2.1,5.2-6.4,5.2c-4.7,0-6.7-3-6.7-7.3v-1c0-4.3,2-7.3,6.7-7.3
				c4.3,0,6.4,2.2,6.4,5.5v0.6h-4.2c0-1.5-0.7-2.3-2.1-2.3c-1.7,0-2.4,1.3-2.4,3.5v1C41.2,26.2,41.8,27.5,43.6,27.5z"/>
			<path class="st0" d="M56,17.5c1-1.1,2.4-1.8,4.4-1.8c3.4,0,4.6,2.5,4.6,5.2V31h-4.4v-9.3c0-1.1-0.4-2.1-2-2.1
				c-1.4,0-2.3,0.9-2.6,1.4v10h-4.4V8.5H56C56,8.5,56,17.5,56,17.5z"/>
			<path class="st0" d="M76.4,29.4c-1,1.1-2.6,1.9-4.6,1.9c-3.3,0-4.5-2.1-4.5-4.5v-0.3c0-3.2,2.2-4.3,5.3-4.8l3.4-0.5
				c0-1.5-0.5-2.2-2-2.2c-1.6,0-2,0.9-2,1.9h-4.2v-0.3c0-2.6,1.4-5,6.3-5c4.8,0,6.3,2.1,6.3,5.7v5.3l0.3,4.2h-4L76.4,29.4z
				 M75.9,26.6v-2.7l-2.5,0.4c-1.4,0.2-1.8,0.9-1.8,1.8v0.2c0,0.8,0.5,1.5,1.8,1.5C74.6,27.7,75.4,27.1,75.9,26.6z"/>
			<path class="st0" d="M86.4,25.1c0.2,2.1,1.1,2.8,2.8,2.8c1.5,0,2.5-0.9,2.5-1.8h4.2v0.1c0,2.8-2.4,5-6.7,5
				c-4.9,0-7.2-3.1-7.2-7.4V23c0-4.3,2.4-7.4,7-7.4c4.7,0,6.9,3.1,6.9,7.4v2L86.4,25.1L86.4,25.1z M86.4,21.9h5
				c-0.1-1.9-0.9-2.8-2.5-2.8C87.4,19.1,86.6,20,86.4,21.9z"/>
			<path class="st0" d="M97.7,8.5h4.4v22.4h-4.4V8.5z"/>
			<path class="st0" d="M118.5,27.4h0.3c2.2,0,3-1.5,3-3.9h4.5v0.3c0,5.4-2.6,7.6-7.8,7.6c-5.7,0-8.2-3.2-8.2-10.7v-1.1
				c0-7.6,2.5-10.7,8.2-10.7c5.2,0,7.8,2.2,7.8,7.6v1h-4.5c0-3-0.6-4.7-3-4.7h-0.3c-2.9,0-3.6,2.4-3.6,6.8v1.1
				C114.9,24.9,115.6,27.4,118.5,27.4z"/>
			<path class="st0" d="M132.8,17.5c1-1.1,2.4-1.8,4.4-1.8c3.4,0,4.6,2.5,4.6,5.2V31h-4.4v-9.3c0-1.1-0.4-2.1-2-2.1
				c-1.4,0-2.3,0.9-2.6,1.4v10h-4.4V8.5h4.4V17.5z"/>
			<path class="st0" d="M152.4,15.8V20h-0.8c-1.8,0-2.8,0.7-3.2,1.3v9.6H144V20.3l-0.3-4.2h3.9l0.3,1.7c0.9-1.2,2.2-2.1,3.9-2.1
				C152.1,15.7,152.3,15.7,152.4,15.8z"/>
			<path class="st0" d="M158.8,14h-4.6V9.3h4.6V14z M154.3,16.1h4.4v14.8h-4.4V16.1z"/>
			<path class="st0" d="M169,26.5c0-0.9-0.5-1.3-2.2-1.5c-4.2-0.3-6-1.4-6-4.2v-0.3c0-3.4,2.7-4.8,6.2-4.8c4.4,0,6.2,1.9,6.2,5.1V21
				h-4.3c0-1.2-0.6-1.9-1.9-1.9c-1.2,0-1.9,0.5-1.9,1.3c0,0.9,0.4,1.3,2.1,1.4c3.7,0.3,6.2,1.1,6.2,4.2v0.3c0,3.1-2.2,5-6.4,5
				c-4.3,0-6.4-2-6.4-4.9v-0.1h4.4c0,1,0.5,1.7,2,1.7C168.5,27.9,169,27.3,169,26.5z"/>
			<path class="st0" d="M185.5,16.1V20h-3.8v5.3c0,1.8,0.8,2.2,2.2,2.2c0.5,0,1.2-0.1,1.3-0.2v3.6c-0.3,0.1-1,0.4-2.4,0.4
				c-3.3,0-5.6-1.4-5.6-5.5V20h-2.3v-3.9h2.3v-4.2h4.4v4.2H185.5z"/>
			<path class="st0" d="M186.8,24v-1c0-4.3,2.2-7.3,6.9-7.3c4.8,0,6.9,3,6.9,7.3v1c0,4.3-2.2,7.3-6.9,7.3S186.8,28.3,186.8,24z
				 M196.2,24v-1c0-2.2-0.8-3.5-2.5-3.5s-2.5,1.3-2.5,3.5v1c0,2.2,0.8,3.5,2.5,3.5C195.5,27.5,196.2,26.2,196.2,24z"/>
			<path class="st0" d="M206.8,29.7v6.9h-4.4V20.3l-0.3-4.2h3.9l0.3,1.8c0.8-1.3,2.2-2.2,4.2-2.2c4.1,0,5.5,3,5.5,7.3v1
				c0,4.3-1.5,7.3-5.5,7.3C208.9,31.3,207.7,30.7,206.8,29.7z M206.8,20.9v5.2c0.4,0.5,1.2,1.4,2.5,1.4c1.7,0,2.4-1.3,2.4-3.5v-1
				c0-2.2-0.7-3.5-2.4-3.5C208.1,19.5,207.2,20.4,206.8,20.9z"/>
			<path class="st0" d="M222.4,17.5c1-1.1,2.4-1.8,4.4-1.8c3.4,0,4.6,2.5,4.6,5.2V31H227v-9.3c0-1.1-0.4-2.1-2-2.1
				c-1.4,0-2.3,0.9-2.6,1.4v10H218V8.5h4.4V17.5z"/>
			<path class="st0" d="M237.4,25.1c0.2,2.1,1.1,2.8,2.8,2.8c1.5,0,2.5-0.9,2.5-1.8h4.2v0.1c0,2.8-2.4,5-6.7,5
				c-4.9,0-7.2-3.1-7.2-7.4V23c0-4.3,2.4-7.4,7-7.4c4.7,0,6.9,3.1,6.9,7.4v2L237.4,25.1L237.4,25.1z M237.4,21.9h5
				c-0.1-1.9-0.9-2.8-2.5-2.8C238.3,19.1,237.6,20,237.4,21.9z"/>
			<path class="st0" d="M257.6,15.8V20h-0.8c-1.8,0-2.8,0.7-3.2,1.3v9.6h-4.4V20.3l-0.3-4.2h3.9l0.3,1.7c0.9-1.2,2.2-2.1,3.9-2.1
				C257.3,15.7,257.5,15.7,257.6,15.8z"/>
			<path class="st0" d="M259.3,30.3c0,2-1,3-2.9,3V32c0.8,0,1.3-0.4,1.5-1.1h-1.4v-2.8h2.8V30.3z"/>
			<path class="st0" d="M272,30.9h-5V14.6h5c4.9,0,6.9,2.1,6.9,7.8v0.8C278.9,28.8,276.9,30.9,272,30.9z M271.8,28
				c2.8,0,3.6-1.6,3.6-4.8v-0.8c0-3.3-0.8-4.8-3.6-4.8h-1.4V28H271.8z"/>
			<path class="st0" d="M290.2,30.9h-3.5l-2.9-10.5l0.1,3.3v7.2h-3.4V14.6h5l2.9,10.5l2.9-10.5h5V31h-3.4v-7.2l0.1-3.3L290.2,30.9z"
				/>
			<path class="st0" d="M303.7,30.9h-5V14.6h5c4.9,0,6.9,2.1,6.9,7.8v0.8C310.7,28.8,308.6,30.9,303.7,30.9z M303.6,28
				c2.8,0,3.6-1.6,3.6-4.8v-0.8c0-3.3-0.8-4.8-3.6-4.8h-1.4V28H303.6z"/>
		</g>
	</g>
</g>
<g>
	<g>
		<path class="st1" d="M60.4,48c0,0.1,0,0.2,0,0.3s0,0.1,0,0.2c0,0.1,0,0.1-0.1,0.1c-0.1,0-0.1,0.1-0.1,0.2
			c-0.1,0.1-0.2,0.2-0.4,0.3c-0.2,0.1-0.4,0.2-0.7,0.4c-0.3,0.1-0.6,0.2-1,0.3c-0.4,0.1-0.8,0.1-1.2,0.1c-0.8,0-1.5-0.1-2.1-0.4
			c-0.6-0.3-1.2-0.6-1.6-1.1c-0.4-0.5-0.8-1.1-1-1.9c-0.2-0.7-0.4-1.6-0.4-2.6s0.1-1.9,0.4-2.6c0.3-0.8,0.6-1.4,1.1-2
			c0.5-0.5,1-0.9,1.7-1.2c0.6-0.3,1.4-0.4,2.1-0.4c0.3,0,0.7,0,1,0.1c0.3,0.1,0.6,0.1,0.9,0.2c0.3,0.1,0.5,0.2,0.7,0.3
			s0.4,0.2,0.4,0.3s0.1,0.1,0.2,0.2c0,0,0,0.1,0.1,0.2c0,0.1,0,0.1,0,0.2s0,0.2,0,0.3s0,0.2,0,0.3s0,0.2-0.1,0.2
			c0,0.1-0.1,0.1-0.1,0.1h-0.1c-0.1,0-0.2-0.1-0.4-0.2c-0.2-0.1-0.4-0.3-0.6-0.4s-0.5-0.3-0.9-0.4C57.9,39,57.4,39,57,39
			c-0.5,0-1,0.1-1.5,0.3c-0.4,0.2-0.8,0.5-1.1,0.9s-0.5,0.9-0.7,1.5s-0.3,1.3-0.3,2c0,0.8,0.1,1.4,0.2,2c0.2,0.6,0.4,1.1,0.7,1.5
			c0.3,0.4,0.7,0.7,1.1,0.9c0.4,0.2,0.9,0.3,1.5,0.3c0.5,0,0.9-0.1,1.2-0.2c0.4-0.1,0.7-0.2,0.9-0.4c0.3-0.1,0.5-0.3,0.6-0.4
			c0.2-0.1,0.3-0.2,0.4-0.2h0.1l0.1,0.1c0,0.1,0,0.1,0,0.2C60.4,47.7,60.4,47.8,60.4,48z"/>
		<path class="st1" d="M70,45.2c0,0.7-0.1,1.3-0.3,1.9c-0.2,0.6-0.4,1.1-0.8,1.5s-0.8,0.7-1.3,1s-1.1,0.3-1.8,0.3
			c-0.7,0-1.3-0.1-1.8-0.3c-0.5-0.2-0.9-0.5-1.3-0.9c-0.3-0.4-0.6-0.9-0.8-1.4c-0.2-0.6-0.2-1.2-0.2-1.9s0.1-1.3,0.3-1.9
			c0.2-0.6,0.4-1.1,0.8-1.5c0.4-0.4,0.8-0.7,1.3-1c0.5-0.3,1.1-0.3,1.9-0.3c0.7,0,1.3,0.1,1.8,0.3s0.9,0.5,1.3,0.9
			c0.3,0.4,0.6,0.9,0.8,1.4C70,43.9,70,44.5,70,45.2z M68.5,45.3c0-0.4,0-0.9-0.1-1.3c-0.1-0.4-0.2-0.8-0.4-1.1
			c-0.2-0.3-0.5-0.5-0.8-0.7c-0.4-0.1-0.8-0.2-1.3-0.2s-0.8,0.1-1.2,0.2c-0.3,0.2-0.6,0.4-0.8,0.7c-0.2,0.3-0.4,0.6-0.5,1
			c-0.1,0.4-0.2,0.8-0.2,1.3s0,0.9,0.1,1.3c0.1,0.4,0.2,0.7,0.4,1c0.2,0.3,0.5,0.5,0.8,0.7c0.3,0.2,0.7,0.3,1.2,0.3
			c0.4,0,0.8-0.1,1.2-0.2c0.3-0.2,0.6-0.4,0.8-0.7c0.2-0.3,0.4-0.6,0.5-1S68.5,45.8,68.5,45.3z"/>
		<path class="st1" d="M77.5,47.2c0,0.4-0.1,0.8-0.2,1.1c-0.1,0.3-0.4,0.6-0.7,0.8s-0.6,0.4-1,0.5s-0.8,0.2-1.3,0.2
			c-0.3,0-0.6,0-0.8-0.1c-0.3,0-0.5-0.1-0.7-0.2c-0.2-0.1-0.4-0.1-0.5-0.2c-0.1-0.1-0.3-0.1-0.3-0.2c-0.1-0.1-0.1-0.1-0.1-0.3
			c0-0.1,0-0.3,0-0.5c0-0.1,0-0.2,0-0.3s0-0.1,0-0.2c0,0,0-0.1,0.1-0.1s0.1,0,0.1,0c0.1,0,0.2,0,0.3,0.1s0.3,0.2,0.5,0.3
			c0.2,0.1,0.4,0.2,0.7,0.3s0.6,0.1,0.9,0.1c0.3,0,0.5,0,0.7-0.1c0.2-0.1,0.4-0.1,0.5-0.2c0.1-0.1,0.3-0.2,0.4-0.4s0.1-0.4,0.1-0.6
			c0-0.2-0.1-0.4-0.2-0.6c-0.1-0.2-0.3-0.3-0.5-0.4c-0.2-0.1-0.4-0.2-0.7-0.3c-0.2-0.1-0.5-0.2-0.8-0.3c-0.3-0.1-0.5-0.2-0.8-0.4
			c-0.2-0.1-0.5-0.3-0.7-0.5c-0.2-0.2-0.4-0.4-0.5-0.7s-0.2-0.6-0.2-0.9c0-0.3,0.1-0.6,0.2-0.9c0.1-0.3,0.3-0.6,0.6-0.8
			s0.6-0.4,0.9-0.5c0.4-0.1,0.8-0.2,1.3-0.2c0.2,0,0.4,0,0.7,0.1c0.2,0,0.4,0.1,0.6,0.1c0.2,0.1,0.3,0.1,0.5,0.2
			c0.2,0.1,0.2,0.1,0.3,0.2c0.1,0,0.1,0.1,0.1,0.1v0.1c0,0,0,0.1,0,0.2s0,0.2,0,0.2c0,0.1,0,0.2,0,0.3s0,0.1,0,0.2
			c0,0,0,0.1-0.1,0.1c-0.1,0-0.1,0-0.1,0c-0.1,0-0.1,0-0.2-0.1s-0.2-0.1-0.4-0.2s-0.4-0.1-0.6-0.2c-0.2-0.1-0.5-0.1-0.8-0.1
			c-0.3,0-0.5,0-0.7,0.1c-0.2,0.1-0.4,0.1-0.5,0.2s-0.2,0.2-0.3,0.4s-0.1,0.3-0.1,0.5s0.1,0.4,0.2,0.6c0.1,0.2,0.3,0.3,0.5,0.4
			c0.2,0.1,0.4,0.2,0.7,0.3s0.5,0.2,0.8,0.3c0.3,0.1,0.5,0.2,0.8,0.3c0.3,0.1,0.5,0.3,0.7,0.5c0.2,0.2,0.4,0.4,0.5,0.7
			C77.4,46.5,77.5,46.8,77.5,47.2z"/>
		<path class="st1" d="M92,49.4L92,49.4l-0.1,0.2c0,0-0.1,0-0.2,0.1c-0.1,0-0.2,0-0.4,0c-0.2,0-0.3,0-0.4,0c-0.1,0-0.2,0-0.2-0.1
			c-0.1,0-0.1-0.1-0.1-0.1v-0.1v-5c0-0.3,0-0.7-0.1-1s-0.2-0.5-0.3-0.7s-0.3-0.4-0.5-0.5c-0.4-0.1-0.6-0.2-0.9-0.2
			c-0.4,0-0.7,0.1-1.1,0.4c-0.4,0.3-0.7,0.7-1.2,1.2v5.8v0.1l-0.1,0.1c-0.1,0-0.1,0-0.2,0.1c-0.1,0-0.2,0-0.4,0c-0.1,0-0.3,0-0.4,0
			c-0.1,0-0.2,0-0.2-0.1c-0.1,0-0.1-0.1-0.1-0.1v-0.1v-5c0-0.3,0-0.7-0.1-1s-0.2-0.5-0.3-0.7s-0.3-0.4-0.5-0.5
			C84,42.1,83.7,42,83.5,42c-0.4,0-0.7,0.1-1.1,0.4c-0.4,0.3-0.7,0.7-1.2,1.2v5.8v0.1l-0.1,0.1c0,0-0.1,0-0.2,0.1
			c-0.1,0-0.2,0-0.4,0c-0.1,0-0.3,0-0.4,0s-0.2,0-0.2-0.1c-0.1,0-0.1-0.1-0.1-0.1v-0.1v-8.3V41l0.1-0.1c0.1,0,0.1,0,0.2-0.1
			c0.1,0,0.2,0,0.3,0s0.2,0,0.3,0s0.2,0,0.2,0.1L81,41v0.1v1.1c0.5-0.5,0.9-0.9,1.4-1.1c0.4-0.2,0.9-0.4,1.3-0.4
			c0.3,0,0.7,0,0.9,0.1c0.3,0.1,0.5,0.2,0.7,0.3c0.2,0.1,0.4,0.3,0.5,0.5s0.3,0.4,0.4,0.7c0.3-0.3,0.5-0.6,0.8-0.8
			c0.3-0.2,0.5-0.4,0.7-0.5c0.2-0.1,0.5-0.2,0.7-0.3c0.2-0.1,0.4-0.1,0.7-0.1c0.5,0,1,0.1,1.3,0.3c0.3,0.2,0.7,0.4,0.9,0.8
			c0.2,0.3,0.4,0.7,0.5,1.1c0.1,0.4,0.1,0.9,0.1,1.3L92,49.4L92,49.4z"/>
		<path class="st1" d="M101.8,44.9c0,0.2-0.1,0.4-0.2,0.5s-0.3,0.2-0.4,0.2h-5.4c0,0.5,0,0.9,0.1,1.2c0.1,0.4,0.2,0.7,0.5,1
			c0.2,0.3,0.5,0.5,0.8,0.6c0.3,0.1,0.8,0.2,1.3,0.2c0.4,0,0.7,0,1.1-0.1c0.3-0.1,0.6-0.1,0.8-0.2c0.2-0.1,0.4-0.2,0.6-0.2
			c0.1-0.1,0.3-0.1,0.3-0.1h0.1l0.1,0.1c0,0,0,0.1,0,0.2c0,0.1,0,0.2,0,0.3s0,0.1,0,0.2c0,0.1,0,0.1,0,0.2v0.1c0,0,0,0.1-0.1,0.1
			c0,0-0.1,0.1-0.3,0.2c-0.2,0.1-0.4,0.2-0.6,0.2c-0.3,0.1-0.6,0.1-0.9,0.2c-0.3,0.1-0.7,0.1-1.1,0.1c-0.7,0-1.3-0.1-1.8-0.3
			s-0.9-0.5-1.3-0.8c-0.4-0.4-0.6-0.8-0.8-1.4c-0.2-0.6-0.3-1.2-0.3-2c0-0.7,0.1-1.4,0.3-1.9c0.2-0.6,0.5-1.1,0.8-1.4
			c0.3-0.3,0.8-0.7,1.3-0.9s1-0.3,1.7-0.3c0.7,0,1.2,0.1,1.7,0.3s0.8,0.5,1.1,0.8c0.3,0.3,0.5,0.8,0.6,1.2c0.1,0.5,0.2,1,0.2,1.5
			v0.2H101.8z M100.3,44.5c0-0.8-0.2-1.4-0.5-1.9c-0.4-0.5-0.9-0.7-1.7-0.7c-0.4,0-0.7,0.1-1,0.2c-0.3,0.1-0.5,0.3-0.7,0.6
			c-0.2,0.3-0.3,0.5-0.4,0.8c-0.1,0.3-0.2,0.6-0.2,1C95.8,44.5,100.3,44.5,100.3,44.5z"/>
		<path class="st1" d="M111.3,40.9c0.2,0,0.3,0,0.4,0.1s0.1,0.2,0.1,0.4v8v0.1l-0.1,0.1c0,0-0.1,0-0.2,0.1c-0.1,0-0.2,0-0.4,0
			c-0.2,0-0.3,0-0.4,0s-0.2,0-0.2-0.1c-0.1,0-0.1-0.1-0.1-0.1v-0.1v-7.3h-4.3v4.6c0,0.6,0.1,1,0.3,1.3c0.2,0.3,0.5,0.4,0.9,0.4
			c0.1,0,0.3,0,0.4,0s0.2-0.1,0.3-0.1s0.2-0.1,0.2-0.1c0.1,0,0.1,0,0.2,0h0.1c0,0,0,0,0.1,0.1c0,0,0,0.1,0,0.2c0,0.1,0,0.2,0,0.3
			c0,0.2,0,0.3,0,0.4c0,0.1-0.1,0.2-0.1,0.2c0,0.1-0.1,0.1-0.2,0.1c-0.1,0-0.2,0.1-0.3,0.1s-0.3,0.1-0.4,0.1s-0.3,0-0.4,0
			c-0.4,0-0.8-0.1-1.1-0.2c-0.3-0.1-0.6-0.3-0.8-0.5c-0.2-0.2-0.3-0.5-0.4-0.9c-0.1-0.4-0.1-0.8-0.1-1.2v-4.8h-1.2
			c-0.1,0-0.2,0-0.2-0.1c-0.1-0.1-0.1-0.3-0.1-0.5c0-0.1,0-0.2,0-0.3s0-0.1,0.1-0.2c0-0.1,0.1-0.1,0.1-0.1h0.1h1.2v-2v-0.1l0.1-0.1
			c0.1,0,0.1,0,0.2-0.1c0.1,0,0.2,0,0.4,0c0.2,0,0.3,0,0.4,0s0.2,0,0.2,0.1c0.1,0,0.1,0.1,0.1,0.1v0.1v2H111.3z M111.9,38.3
			c0,0.4-0.1,0.6-0.2,0.7s-0.4,0.2-0.7,0.2c-0.4,0-0.6-0.1-0.7-0.2s-0.2-0.4-0.2-0.7c0-0.4,0.1-0.6,0.2-0.7c0.1-0.1,0.4-0.2,0.7-0.2
			c0.4,0,0.6,0.1,0.7,0.2S111.9,38,111.9,38.3z"/>
		<path class="st1" d="M120.5,48.2c0,0.1,0,0.2,0,0.3s0,0.1,0,0.2c0,0.1,0,0.1-0.1,0.1s-0.1,0.1-0.1,0.2c-0.1,0.1-0.2,0.2-0.4,0.3
			c-0.2,0.1-0.4,0.2-0.6,0.3s-0.5,0.2-0.8,0.2c-0.3,0.1-0.6,0.1-0.8,0.1c-0.6,0-1.1-0.1-1.6-0.3s-0.8-0.5-1.2-0.9
			c-0.3-0.4-0.5-0.8-0.7-1.4c-0.2-0.5-0.2-1.2-0.2-1.9c0-0.8,0.1-1.5,0.3-2.1s0.5-1.1,0.8-1.4c0.3-0.4,0.8-0.7,1.2-0.8
			c0.5-0.2,1-0.3,1.5-0.3c0.3,0,0.5,0,0.8,0.1c0.2,0,0.5,0.1,0.7,0.2s0.4,0.2,0.6,0.3s0.3,0.2,0.4,0.3s0.1,0.1,0.2,0.2
			s0.1,0.1,0.1,0.2c0,0.1,0,0.1,0,0.2c0,0.1,0,0.2,0,0.3c0,0.2,0,0.4-0.1,0.5s-0.2-0.1-0.3-0.1s-0.2-0.1-0.3-0.2
			c-0.1-0.1-0.3-0.2-0.5-0.3s-0.4-0.2-0.7-0.3s-0.5-0.2-0.9-0.2c-0.7,0-1.3,0.3-1.7,0.8c-0.4,0.6-0.6,1.4-0.6,2.4
			c0,0.5,0.1,1,0.2,1.4s0.3,0.7,0.4,1s0.4,0.5,0.7,0.6c0.3,0.1,0.6,0.2,1,0.2s0.7-0.1,0.9-0.2c0.3-0.1,0.5-0.2,0.7-0.4
			c0.2-0.1,0.4-0.3,0.5-0.4s0.2-0.2,0.3-0.2h0.1l0.1,0.1c0,0.1,0,0.1,0,0.2S120.5,48,120.5,48.2z"/>
		<path class="st1" d="M126.4,46.5c0-0.3,0-0.7,0.1-1s0.2-0.6,0.4-0.9c0.2-0.3,0.5-0.6,0.8-0.8c0.3-0.3,0.7-0.5,1.1-0.8
			c-0.2-0.3-0.5-0.6-0.6-0.9c-0.2-0.3-0.3-0.5-0.4-0.8s-0.2-0.5-0.2-0.7s-0.1-0.4-0.1-0.6c0-0.4,0.1-0.7,0.2-1.1
			c0.1-0.3,0.3-0.7,0.6-0.9c0.3-0.3,0.7-0.5,1.1-0.6c0.4-0.2,1-0.2,1.6-0.2c0.5,0,1,0.1,1.4,0.2c0.4,0.1,0.7,0.3,1,0.5
			s0.5,0.5,0.6,0.8c0.1,0.3,0.2,0.6,0.2,1s-0.1,0.7-0.2,1c-0.1,0.3-0.3,0.6-0.6,0.9c-0.3,0.3-0.6,0.6-1,0.8
			c-0.4,0.3-0.9,0.6-1.5,0.9c0.2,0.3,0.4,0.5,0.7,0.8c0.2,0.3,0.5,0.5,0.8,0.8s0.5,0.5,0.8,0.8s0.6,0.5,0.8,0.8
			c0.1-0.2,0.2-0.4,0.3-0.6c0.1-0.2,0.2-0.4,0.3-0.7s0.1-0.5,0.2-0.7c0-0.2,0.1-0.5,0.1-0.7v-0.3c0-0.1,0-0.1,0-0.2l0.1-0.1
			c0,0,0.1,0,0.2-0.1c0.1,0,0.2,0,0.4,0c0.1,0,0.2,0,0.3,0c0.1,0,0.2,0,0.2,0l0.1,0.1c0,0,0,0.1,0,0.2v0.2c0,0.3,0,0.7-0.1,1
			c-0.1,0.3-0.1,0.7-0.2,1c-0.1,0.3-0.2,0.6-0.4,0.9c-0.2,0.3-0.3,0.6-0.5,0.8c0.3,0.2,0.5,0.4,0.7,0.6c0.2,0.1,0.4,0.3,0.5,0.4
			c0.1,0.1,0.3,0.2,0.4,0.2c0.1,0,0.2,0.1,0.2,0.1s0.1,0,0.2,0c0.1,0,0.1,0,0.1,0l0.1,0.1c0,0.1,0,0.2,0,0.3c0,0.2,0,0.3,0,0.4
			c0,0.1,0,0.2,0,0.2s0,0.1-0.1,0.1c0,0-0.1,0.1-0.2,0.1c-0.1,0-0.2,0-0.4,0c-0.1,0-0.3,0-0.4-0.1c-0.1-0.1-0.3-0.1-0.5-0.2
			s-0.4-0.3-0.7-0.4c-0.3-0.2-0.6-0.4-0.9-0.7c-0.3,0.2-0.5,0.4-0.8,0.6c-0.3,0.2-0.6,0.3-0.9,0.5s-0.7,0.2-1,0.3
			c-0.4,0.1-0.7,0.1-1.1,0.1c-0.4,0-0.8,0-1.1-0.1s-0.7-0.2-1-0.3s-0.6-0.3-0.8-0.5c-0.2-0.2-0.4-0.4-0.6-0.6
			c-0.2-0.2-0.3-0.5-0.4-0.8C126.5,47.2,126.4,46.9,126.4,46.5z M128.1,46.4c0,0.3,0.1,0.6,0.2,0.9c0.1,0.3,0.3,0.5,0.5,0.7
			s0.5,0.3,0.8,0.5s0.7,0.2,1.1,0.2c0.3,0,0.5,0,0.7-0.1s0.5-0.1,0.7-0.2s0.4-0.2,0.6-0.3s0.4-0.3,0.5-0.4c-0.3-0.3-0.6-0.6-1-0.9
			c-0.3-0.3-0.6-0.6-0.9-0.9c-0.3-0.3-0.6-0.6-0.9-0.9c-0.3-0.3-0.5-0.6-0.8-0.9c-0.3,0.2-0.6,0.4-0.8,0.6c-0.2,0.2-0.4,0.4-0.5,0.6
			c-0.1,0.2-0.2,0.4-0.3,0.6C128.1,45.9,128.1,46.1,128.1,46.4z M129.1,39.9c0,0.2,0,0.3,0.1,0.5c0,0.2,0.1,0.4,0.2,0.5
			c0.1,0.1,0.2,0.4,0.4,0.6c0.1,0.2,0.3,0.5,0.5,0.7c0.4-0.3,0.8-0.5,1.1-0.7c0.3-0.2,0.5-0.4,0.7-0.6c0.2-0.2,0.3-0.4,0.4-0.6
			c0.1-0.2,0.1-0.4,0.1-0.6c0-0.2,0-0.3-0.1-0.5c-0.1-0.2-0.2-0.3-0.3-0.4c-0.1-0.1-0.3-0.2-0.5-0.3s-0.5-0.1-0.8-0.1
			s-0.6,0-0.8,0.1s-0.4,0.2-0.6,0.3c-0.1,0.1-0.3,0.3-0.3,0.5C129.2,39.6,129.1,39.7,129.1,39.9z"/>
		<path class="st1" d="M150.4,38.4c0,0.1,0,0.2,0,0.3s0,0.2-0.1,0.2c0,0.1-0.1,0.1-0.1,0.1h-0.1h-4.4v4.1h4.1h0.1l0.1,0.1
			c0,0,0.1,0.1,0.1,0.2c0,0.1,0,0.2,0,0.3s0,0.2,0,0.3s0,0.2-0.1,0.2c0,0.1-0.1,0.1-0.1,0.1h-0.1h-4.1v5v0.1l-0.1,0.1
			c-0.1,0-0.1,0-0.2,0.1c-0.1,0-0.2,0-0.4,0c-0.1,0-0.3,0-0.4,0c-0.1,0-0.2,0-0.2-0.1c-0.1,0-0.1-0.1-0.1-0.1v-0.1v-11
			c0-0.2,0.1-0.4,0.2-0.5c0.1-0.1,0.3-0.1,0.4-0.1h5.4h0.1l0.1,0.1c0,0,0.1,0.1,0.1,0.2C150.4,38.2,150.4,38.3,150.4,38.4z"/>
		<path class="st1" d="M158.4,49.4c0,0.1,0,0.1-0.1,0.2c0,0-0.1,0.1-0.2,0.1c-0.1,0-0.2,0-0.4,0c-0.2,0-0.3,0-0.4,0
			c-0.1,0-0.2,0-0.2-0.1c0,0-0.1-0.1-0.1-0.2v-0.8c-0.4,0.4-0.8,0.7-1.2,0.9s-0.9,0.3-1.4,0.3c-0.4,0-0.8-0.1-1.2-0.2
			c-0.4-0.1-0.7-0.3-0.9-0.5c-0.2-0.2-0.4-0.5-0.6-0.8s-0.2-0.7-0.2-1.1c0-0.5,0.1-0.9,0.3-1.2c0.2-0.3,0.5-0.6,0.8-0.9
			s0.8-0.4,1.3-0.5s1.1-0.2,1.7-0.2h1.1v-0.6c0-0.3,0-0.6-0.1-0.8c-0.1-0.2-0.2-0.5-0.3-0.6c-0.2-0.2-0.3-0.3-0.6-0.4
			c-0.3-0.1-0.5-0.1-0.9-0.1c-0.4,0-0.7,0-1,0.1s-0.6,0.2-0.8,0.3s-0.4,0.2-0.6,0.3s-0.3,0.1-0.3,0.1H152l-0.1-0.1
			c0,0,0-0.1-0.1-0.2c0-0.1,0-0.2,0-0.3c0-0.2,0-0.3,0-0.4s0.1-0.2,0.2-0.3c0.1-0.1,0.2-0.2,0.4-0.3s0.4-0.2,0.7-0.3
			c0.3-0.1,0.6-0.2,0.9-0.2c0.3-0.1,0.6-0.1,0.9-0.1c0.6,0,1.1,0.1,1.5,0.2c0.4,0.1,0.8,0.3,1,0.6c0.3,0.3,0.4,0.6,0.6,1
			c0.1,0.4,0.2,0.8,0.2,1.4v5.7H158.4z M156.9,45.6h-1.3c-0.4,0-0.8,0-1.1,0.1c-0.3,0.1-0.6,0.2-0.8,0.3s-0.4,0.3-0.4,0.5
			c-0.1,0.2-0.1,0.4-0.1,0.7c0,0.4,0.1,0.8,0.4,1c0.3,0.3,0.7,0.4,1.1,0.4c0.4,0,0.8-0.1,1.1-0.3c0.3-0.2,0.7-0.5,1.1-0.9
			C156.9,47.4,156.9,45.6,156.9,45.6z"/>
		<path class="st1" d="M173.5,49.4L173.5,49.4l-0.1,0.2c0,0-0.1,0-0.2,0.1c-0.1,0-0.2,0-0.4,0s-0.3,0-0.4,0c-0.1,0-0.2,0-0.2-0.1
			c-0.1,0-0.1-0.1-0.1-0.1v-0.1v-5c0-0.3,0-0.7-0.1-1c-0.1-0.3-0.2-0.5-0.3-0.7s-0.3-0.4-0.5-0.5s-0.5-0.2-0.7-0.2
			c-0.4,0-0.7,0.1-1.1,0.4c-0.4,0.3-0.7,0.7-1.2,1.2v5.8v0.1l-0.1,0.1c-0.1,0-0.1,0-0.2,0.1c-0.1,0-0.2,0-0.4,0c-0.1,0-0.3,0-0.4,0
			c-0.1,0-0.2,0-0.2-0.1c-0.1,0-0.1-0.1-0.1-0.1v-0.1v-5c0-0.3,0-0.7-0.1-1c-0.1-0.3-0.2-0.5-0.3-0.7s-0.3-0.4-0.5-0.5
			s-0.5-0.2-0.7-0.2c-0.4,0-0.7,0.1-1.1,0.4c-0.4,0.3-0.7,0.7-1.2,1.2v5.8v0.1l-0.1,0.1c0,0-0.1,0-0.2,0.1c-0.1,0-0.2,0-0.4,0
			c-0.1,0-0.3,0-0.4,0c-0.1,0-0.2,0-0.2-0.1c-0.1,0-0.1-0.1-0.1-0.1v-0.1v-8.3V41l0.1-0.1c0.1,0,0.1,0,0.2-0.1c0.1,0,0.2,0,0.3,0
			s0.2,0,0.3,0s0.2,0,0.2,0.1l0.1,0.1v0.1v1.1c0.5-0.5,0.9-0.9,1.4-1.1c0.4-0.2,0.9-0.4,1.3-0.4c0.3,0,0.7,0,0.9,0.1
			c0.3,0.1,0.5,0.2,0.7,0.3s0.4,0.3,0.5,0.5c0.1,0.2,0.3,0.4,0.4,0.7c0.3-0.3,0.5-0.6,0.8-0.8s0.5-0.4,0.7-0.5s0.5-0.2,0.7-0.3
			s0.4-0.1,0.7-0.1c0.5,0,1,0.1,1.3,0.3s0.7,0.4,0.9,0.8c0.2,0.3,0.4,0.7,0.5,1.1c0.1,0.4,0.1,0.9,0.1,1.3v5.3H173.5z"/>
		<path class="st1" d="M178,38.3c0,0.4-0.1,0.6-0.2,0.7s-0.4,0.2-0.7,0.2c-0.4,0-0.6-0.1-0.7-0.2c-0.1-0.1-0.2-0.4-0.2-0.7
			c0-0.4,0.1-0.6,0.2-0.7c0.1-0.1,0.4-0.2,0.7-0.2c0.4,0,0.6,0.1,0.7,0.2C177.9,37.7,178,38,178,38.3z M177.8,49.4L177.8,49.4
			l-0.1,0.2c0,0-0.1,0-0.2,0.1c-0.1,0-0.2,0-0.4,0c-0.1,0-0.3,0-0.4,0c-0.1,0-0.2,0-0.2-0.1c-0.1,0-0.1-0.1-0.1-0.1v-0.1v-8.3V41
			l0.1-0.1c0.1,0,0.1,0,0.2-0.1c0.1,0,0.2,0,0.4,0s0.3,0,0.4,0c0.1,0,0.2,0,0.2,0.1c0.1,0,0.1,0.1,0.1,0.1v0.1V49.4z"/>
		<path class="st1" d="M182.1,49.4L182.1,49.4l-0.1,0.2c0,0-0.1,0-0.2,0.1c-0.1,0-0.2,0-0.4,0c-0.1,0-0.3,0-0.4,0
			c-0.1,0-0.2,0-0.2-0.1c-0.1,0-0.1-0.1-0.1-0.1v-0.1V37.1V37l0.1-0.1c0.1,0,0.1,0,0.2-0.1c0.1,0,0.2,0,0.4,0s0.3,0,0.4,0
			c0.1,0,0.2,0,0.2,0.1c0.1,0,0.1,0.1,0.1,0.1v0.1V49.4z"/>
		<path class="st1" d="M188.7,49.7l-1.1,3.1c0,0.1-0.1,0.2-0.3,0.2c-0.2,0.1-0.4,0.1-0.7,0.1c-0.2,0-0.3,0-0.4,0
			c-0.1,0-0.2,0-0.2-0.1s-0.1-0.1-0.1-0.1c0-0.1,0-0.1,0-0.2l1.1-2.9c-0.1,0-0.1-0.1-0.2-0.1c0-0.1-0.1-0.1-0.1-0.2l-3-7.9
			c0-0.1-0.1-0.2-0.1-0.3s0-0.1,0.1-0.2s0.1-0.1,0.2-0.1c0.1,0,0.3,0,0.4,0c0.2,0,0.3,0,0.4,0s0.2,0,0.2,0.1c0.1,0,0.1,0.1,0.1,0.1
			s0.1,0.1,0.1,0.2l2.4,6.7l0,0l2.3-6.7c0-0.1,0.1-0.2,0.1-0.2s0.1-0.1,0.2-0.1c0.1,0,0.3,0,0.5,0s0.3,0,0.4,0c0.1,0,0.2,0,0.2,0.1
			s0.1,0.1,0.1,0.2c0,0.1,0,0.2-0.1,0.3L188.7,49.7z"/>
		<path class="st1" d="M207.1,43.5c0,1-0.1,1.9-0.4,2.7s-0.7,1.4-1.2,1.9s-1.1,0.9-1.9,1.1c-0.7,0.3-1.6,0.4-2.6,0.4h-2.5
			c-0.1,0-0.3,0-0.4-0.1c-0.1-0.1-0.2-0.3-0.2-0.5V38.4c0-0.2,0.1-0.4,0.2-0.5c0.1-0.1,0.3-0.1,0.4-0.1h2.7c1,0,1.9,0.1,2.6,0.4
			c0.7,0.3,1.3,0.7,1.8,1.2s0.8,1.1,1.1,1.8C207,41.8,207.1,42.6,207.1,43.5z M205.4,43.6c0-0.6-0.1-1.2-0.2-1.8
			c-0.2-0.6-0.4-1-0.8-1.4c-0.3-0.4-0.8-0.7-1.3-1c-0.5-0.2-1.2-0.3-2-0.3h-1.6v9.3h1.6c0.8,0,1.4-0.1,1.9-0.3s1-0.5,1.3-0.9
			c0.4-0.4,0.6-0.9,0.8-1.5S205.4,44.4,205.4,43.6z"/>
		<path class="st1" d="M216.5,44.9c0,0.2-0.1,0.4-0.2,0.5c-0.1,0.1-0.3,0.2-0.4,0.2h-5.5c0,0.5,0,0.9,0.1,1.2c0.1,0.4,0.2,0.7,0.5,1
			c0.2,0.3,0.5,0.5,0.8,0.6s0.8,0.2,1.3,0.2c0.4,0,0.7,0,1.1-0.1s0.6-0.1,0.8-0.2c0.2-0.1,0.4-0.2,0.6-0.2s0.3-0.1,0.3-0.1h0.1
			l0.1,0.1c0,0,0,0.1,0,0.2c0,0.1,0,0.2,0,0.3s0,0.1,0,0.2c0,0.1,0,0.1,0,0.2v0.1c0,0,0,0.1-0.1,0.1c0,0-0.1,0.1-0.3,0.2
			c-0.2,0.1-0.4,0.2-0.6,0.2c-0.3,0.1-0.6,0.1-0.9,0.2c-0.3,0.1-0.7,0.1-1.1,0.1c-0.7,0-1.3-0.1-1.8-0.3s-0.9-0.5-1.3-0.8
			s-0.6-0.8-0.8-1.4c-0.2-0.6-0.3-1.2-0.3-2c0-0.7,0.1-1.4,0.3-1.9c0.2-0.6,0.5-1.1,0.8-1.4s0.8-0.7,1.3-0.9s1-0.3,1.7-0.3
			s1.2,0.1,1.7,0.3s0.8,0.5,1.1,0.8c0.3,0.4,0.5,0.8,0.6,1.2c0.1,0.5,0.2,1,0.2,1.5v0.2H216.5z M214.9,44.5c0-0.8-0.2-1.4-0.5-1.9
			c-0.4-0.5-0.9-0.7-1.7-0.7c-0.4,0-0.7,0.1-1,0.2c-0.3,0.1-0.5,0.3-0.7,0.6s-0.3,0.5-0.4,0.8c-0.1,0.3-0.2,0.6-0.2,1
			C210.4,44.5,214.9,44.5,214.9,44.5z"/>
		<path class="st1" d="M225.9,49.4L225.9,49.4l-0.1,0.2c-0.1,0-0.1,0-0.2,0.1c-0.1,0-0.2,0-0.4,0s-0.3,0-0.4,0c-0.1,0-0.2,0-0.2-0.1
			c-0.1,0-0.1-0.1-0.1-0.1v-0.1v-4.9c0-0.5,0-0.9-0.1-1.1c-0.1-0.3-0.2-0.5-0.3-0.7s-0.3-0.4-0.5-0.5s-0.5-0.2-0.8-0.2
			c-0.4,0-0.8,0.1-1.1,0.4c-0.4,0.3-0.8,0.7-1.2,1.2v5.8v0.1l-0.1,0.1c0,0-0.1,0-0.2,0.1c-0.1,0-0.2,0-0.4,0c-0.1,0-0.3,0-0.4,0
			c-0.1,0-0.2,0-0.2-0.1s-0.1-0.1-0.1-0.1v-0.1v-8.3V41l0.1-0.1c0.1,0,0.1,0,0.2-0.1s0.2,0,0.3,0s0.2,0,0.3,0s0.2,0,0.2,0.1l0.1,0.1
			v0.1v1.1c0.5-0.5,0.9-0.9,1.4-1.1c0.5-0.2,0.9-0.4,1.4-0.4c0.6,0,1,0.1,1.4,0.3s0.7,0.4,0.9,0.8c0.2,0.3,0.4,0.7,0.5,1.1
			c0.1,0.4,0.2,0.9,0.2,1.5v5H225.9z"/>
		<path class="st1" d="M235.7,40.9c0.2,0,0.3,0,0.4,0.1c0.1,0.1,0.1,0.2,0.1,0.4v8v0.1l-0.1,0.1c0,0-0.1,0-0.2,0.1
			c-0.1,0-0.2,0-0.4,0s-0.3,0-0.4,0c-0.1,0-0.2,0-0.2-0.1s-0.1-0.1-0.1-0.1v-0.1v-7.3h-4.3v4.6c0,0.6,0.1,1,0.3,1.3s0.5,0.4,0.9,0.4
			c0.1,0,0.3,0,0.4,0c0.1,0,0.2-0.1,0.3-0.1s0.2-0.1,0.2-0.1c0.1,0,0.1,0,0.2,0h0.1c0,0,0,0,0.1,0.1c0,0,0,0.1,0,0.2
			c0,0.1,0,0.2,0,0.3c0,0.2,0,0.3,0,0.4c0,0.1-0.1,0.2-0.1,0.2c0,0.1-0.1,0.1-0.2,0.1c-0.1,0-0.2,0.1-0.3,0.1s-0.3,0.1-0.4,0.1
			s-0.3,0-0.4,0c-0.4,0-0.8-0.1-1.1-0.2c-0.3-0.1-0.6-0.3-0.8-0.5s-0.3-0.5-0.4-0.9c-0.1-0.4-0.1-0.8-0.1-1.2v-4.8H228
			c-0.1,0-0.2,0-0.2-0.1c-0.1-0.1-0.1-0.3-0.1-0.5c0-0.1,0-0.2,0-0.3s0-0.1,0.1-0.2c0-0.1,0.1-0.1,0.1-0.1h0.1h1.2v-2v-0.1l0.1-0.1
			c0.1,0,0.1,0,0.2-0.1c0.1,0,0.2,0,0.4,0s0.3,0,0.4,0c0.1,0,0.2,0,0.2,0.1c0.1,0,0.1,0.1,0.1,0.1v0.1v2H235.7z M236.4,38.3
			c0,0.4-0.1,0.6-0.2,0.7c-0.1,0.1-0.4,0.2-0.7,0.2c-0.4,0-0.6-0.1-0.7-0.2c-0.1-0.1-0.2-0.4-0.2-0.7c0-0.4,0.1-0.6,0.2-0.7
			c0.1-0.1,0.4-0.2,0.7-0.2c0.4,0,0.6,0.1,0.7,0.2S236.4,38,236.4,38.3z"/>
		<path class="st1" d="M244.2,47.2c0,0.4-0.1,0.8-0.2,1.1c-0.2,0.3-0.4,0.6-0.7,0.8s-0.6,0.4-1,0.5s-0.8,0.2-1.3,0.2
			c-0.3,0-0.6,0-0.8-0.1c-0.3,0-0.5-0.1-0.7-0.2s-0.4-0.1-0.5-0.2c-0.1-0.1-0.3-0.1-0.3-0.2s-0.1-0.1-0.1-0.3c0-0.1,0-0.3,0-0.5
			c0-0.1,0-0.2,0-0.3s0-0.1,0-0.2c0,0,0-0.1,0.1-0.1s0.1,0,0.1,0c0.1,0,0.2,0,0.3,0.1s0.3,0.2,0.5,0.3s0.4,0.2,0.7,0.3
			s0.6,0.1,0.9,0.1c0.3,0,0.5,0,0.7-0.1s0.4-0.1,0.5-0.2s0.3-0.2,0.4-0.4s0.1-0.4,0.1-0.6c0-0.2-0.1-0.4-0.2-0.6
			c-0.1-0.2-0.3-0.3-0.5-0.4c-0.2-0.1-0.4-0.2-0.7-0.3c-0.2-0.1-0.5-0.2-0.8-0.3s-0.5-0.2-0.8-0.4c-0.2-0.1-0.5-0.3-0.7-0.5
			s-0.4-0.4-0.5-0.7s-0.2-0.6-0.2-0.9c0-0.3,0.1-0.6,0.2-0.9c0.1-0.3,0.3-0.6,0.6-0.8s0.6-0.4,0.9-0.5c0.4-0.1,0.8-0.2,1.3-0.2
			c0.2,0,0.4,0,0.7,0.1c0.2,0,0.4,0.1,0.6,0.1c0.2,0.1,0.3,0.1,0.5,0.2s0.2,0.1,0.3,0.2c0.1,0,0.1,0.1,0.1,0.1v0.1c0,0,0,0.1,0,0.2
			c0,0.1,0,0.2,0,0.2c0,0.1,0,0.2,0,0.3s0,0.1,0,0.2c0,0,0,0.1-0.1,0.1h-0.1c-0.1,0-0.1,0-0.2-0.1s-0.2-0.1-0.4-0.2
			s-0.4-0.1-0.6-0.2c-0.2-0.1-0.5-0.1-0.8-0.1s-0.5,0-0.7,0.1s-0.4,0.1-0.5,0.2s-0.2,0.2-0.3,0.4s-0.1,0.3-0.1,0.5s0.1,0.4,0.2,0.6
			s0.3,0.3,0.5,0.4s0.4,0.2,0.7,0.3s0.5,0.2,0.8,0.3s0.5,0.2,0.8,0.3s0.5,0.3,0.7,0.5s0.4,0.4,0.5,0.7
			C244.2,46.5,244.2,46.8,244.2,47.2z"/>
		<path class="st1" d="M250.5,48.8c0,0.2,0,0.3,0,0.4c0,0.1-0.1,0.2-0.1,0.2s-0.1,0.1-0.2,0.1c-0.1,0-0.2,0.1-0.3,0.1
			s-0.3,0.1-0.4,0.1s-0.3,0-0.4,0c-0.4,0-0.8-0.1-1.1-0.2c-0.3-0.1-0.6-0.3-0.8-0.5s-0.3-0.5-0.4-0.9c-0.1-0.4-0.1-0.8-0.1-1.2v-4.8
			h-1.2c-0.1,0-0.2,0-0.2-0.1c-0.1-0.1-0.1-0.3-0.1-0.5c0-0.1,0-0.2,0-0.3s0-0.1,0.1-0.2c0-0.1,0.1-0.1,0.1-0.1h0.1h1.2v-2v-0.1
			l0.1-0.1c0.1,0,0.1,0,0.2-0.1c0.1,0,0.2,0,0.4,0s0.3,0,0.4,0c0.1,0,0.2,0,0.2,0.1c0.1,0,0.1,0.1,0.1,0.1v0.1v2h2.1h0.1l0.1,0.1
			c0,0.1,0,0.1,0.1,0.2c0,0.1,0,0.2,0,0.3c0,0.2,0,0.4-0.1,0.5s-0.1,0.1-0.2,0.1h-2.1v4.6c0,0.6,0.1,1,0.3,1.3s0.5,0.4,0.9,0.4
			c0.1,0,0.3,0,0.4,0c0.1,0,0.2-0.1,0.3-0.1s0.2-0.1,0.2-0.1c0.1,0,0.1,0,0.2,0h0.1c0,0,0,0,0.1,0.1c0,0,0,0.1,0,0.2
			C250.5,48.6,250.5,48.7,250.5,48.8z"/>
		<path class="st1" d="M257.4,41.7c0,0.1,0,0.2,0,0.3s0,0.2,0,0.2c0,0.1,0,0.1-0.1,0.1h-0.1c0,0-0.1,0-0.2,0c-0.1,0-0.2-0.1-0.2-0.1
			c-0.1,0-0.2-0.1-0.3-0.1s-0.2,0-0.4,0c-0.2,0-0.3,0-0.5,0.1c-0.1,0.1-0.3,0.2-0.5,0.3s-0.3,0.3-0.5,0.6c-0.2,0.2-0.4,0.5-0.6,0.9
			v5.5v0.1l-0.1,0.1c0,0-0.1,0-0.2,0.1c-0.1,0-0.2,0-0.4,0c-0.1,0-0.3,0-0.4,0c-0.1,0-0.2,0-0.2-0.1s-0.1-0.1-0.1-0.1v-0.1v-8.3
			v-0.1l0.1-0.1c0.1,0,0.1,0,0.2-0.1s0.2,0,0.3,0s0.2,0,0.3,0s0.2,0,0.2,0.1l0.1,0.1v0.1v1.2c0.2-0.3,0.4-0.6,0.6-0.8
			c0.2-0.2,0.4-0.4,0.6-0.5c0.2-0.1,0.4-0.2,0.5-0.2c0.2,0,0.4-0.1,0.5-0.1s0.2,0,0.3,0s0.2,0,0.3,0.1c0.1,0,0.2,0.1,0.3,0.1
			s0.2,0.1,0.2,0.1l0.1,0.1v0.1c0,0,0,0.1,0,0.2S257.4,41.5,257.4,41.7z"/>
		<path class="st1" d="M263,49.7l-1.1,3.1c0,0.1-0.1,0.2-0.3,0.2c-0.2,0.1-0.4,0.1-0.7,0.1c-0.2,0-0.3,0-0.4,0c-0.1,0-0.2,0-0.2-0.1
			c-0.1,0-0.1-0.1-0.1-0.1c0-0.1,0-0.1,0-0.2l1.1-2.9c-0.1,0-0.1-0.1-0.2-0.1c0-0.1-0.1-0.1-0.1-0.2l-3-7.9c0-0.1-0.1-0.2-0.1-0.3
			s0-0.1,0.1-0.2c0,0,0.1-0.1,0.2-0.1c0.1,0,0.3,0,0.4,0c0.1,0,0.3,0,0.4,0c0.1,0,0.2,0,0.2,0.1s0.1,0.1,0.1,0.1s0.1,0.1,0.1,0.2
			l2.4,6.7l0,0l2.3-6.7c0-0.1,0.1-0.2,0.1-0.2c0.1,0,0.1-0.1,0.2-0.1s0.3,0,0.5,0c0.2,0,0.3,0,0.4,0s0.2,0,0.2,0.1
			c0.1,0,0.1,0.1,0.1,0.2c0,0.1,0,0.2-0.1,0.3L263,49.7z"/>
	</g>
</g>
</svg>
